<svg width="410" height="399" viewBox="0 0 410 399" fill="none" xmlns="http://www.w3.org/2000/svg">
<path fill-rule="evenodd" clip-rule="evenodd" d="M210.958 1.60871C252.127 -6.96249 291.499 20.4718 325.999 42.3858C360.9 64.5536 399.161 89.4814 408.326 126.972C417.262 163.527 388.266 197.048 372.255 231.602C357.764 262.874 350.93 299.949 319.497 318.676C288.462 337.165 248.134 325.655 210.958 327.696C170.476 329.919 128.616 347.407 92.3257 331.149C54.0292 313.992 30.0757 277.716 17.4418 241.002C4.92754 204.635 0.260646 161.838 23.011 129.72C44.6427 99.1818 96.9857 105.265 129.091 83.3811C162.419 60.6632 170.194 10.0955 210.958 1.60871Z" fill="#DCE5ED"/>
<path fill-rule="evenodd" clip-rule="evenodd" d="M178.762 18.2902C182.209 30.9923 186.701 59.5438 182.117 64.0225H153.117C153.114 63.971 153.111 63.9197 153.109 63.8685C142.36 62.679 134 53.5658 134 42.5V21.5C134 9.62588 143.626 0 155.5 0H157.5C168.283 0 177.212 7.93854 178.762 18.2902Z" fill="black"/>
<path fill-rule="evenodd" clip-rule="evenodd" d="M145.262 38.4901C140.654 33.0814 137.536 26.4529 138.057 19.0255C139.558 -2.37502 169.349 2.33281 175.143 13.1339C180.938 23.9351 180.25 51.333 172.76 53.2635C169.774 54.0333 163.411 52.1475 156.935 48.2443L161 77H137L145.262 38.4901Z" fill="#EFAD83"/>
<path fill-rule="evenodd" clip-rule="evenodd" d="M151.75 34.8748C152.856 46.7528 152.413 60.3173 149.117 63.5371H120.117C118.501 35.4635 134.117 46.3349 134.117 19.9028C135.091 18.9515 136.011 18.01 136.921 17.1981L136.889 16.4207C141.911 6.14023 148.281 1 156.001 1C167.581 1 171.237 6.38832 174.349 10.9631C172.022 18.9482 162.99 20.1322 154.966 25.1095C154.02 24.341 152.814 23.8804 151.5 23.8804C148.462 23.8804 146 26.3428 146 29.3804C146 32.418 148.462 34.8804 151.5 34.8804C151.584 34.8804 151.667 34.8785 151.75 34.8748Z" fill="black"/>
<path fill-rule="evenodd" clip-rule="evenodd" d="M98.4078 258.088C122.397 264.798 143.094 268.153 160.5 268.153C177.905 268.153 194.072 262.986 209 252.653C185.524 245.766 166.191 242.323 151 242.323C135.809 242.323 118.278 247.578 98.4078 258.088Z" fill="#78B2C5"/>
<path fill-rule="evenodd" clip-rule="evenodd" d="M181.267 277.824C181.036 277.477 180.84 277.098 180.685 276.689C177.479 268.208 126.117 176.726 121 160H178.826C182.717 172.717 200.227 252.52 202.691 268.442C210.467 293.557 226.475 374.895 228.519 380.53C230.669 386.458 218.572 392.633 215.349 385.346C210.22 373.75 197.999 341.665 192.557 322.074C187.456 303.708 183.302 287.184 181.267 277.824Z" fill="#F3A270"/>
<path fill-rule="evenodd" clip-rule="evenodd" d="M133.957 288.994C110.475 294.928 24.584 305.658 18.6898 307.341C12.6265 309.072 7.31008 296.574 14.8047 293.867C26.7299 289.559 59.5891 279.606 79.5118 275.544C95.5364 272.277 110.159 269.611 119.976 268.05C119.145 240.473 115.343 174.294 117.835 160H169C166.61 173.707 146.41 273.718 142.656 283.729C141.464 287.302 137.909 288.882 133.957 288.994Z" fill="#EFAD83"/>
<path fill-rule="evenodd" clip-rule="evenodd" d="M15.3489 290.539C12.2135 289.956 9.91578 289.793 8.45562 290.05C6.67973 290.363 4.14043 291.116 0.837726 292.309C1.20099 294.369 4.46568 312.884 10.6318 347.854C15.6582 348.456 18.0875 347.168 17.9196 343.991C17.7517 340.814 17.6398 338.17 17.5837 336.059L24.5407 308.213C24.6746 307.677 24.3487 307.134 23.8129 307C23.8038 306.998 23.7946 306.996 23.7853 306.994L19.4672 306.044C17.6164 303.402 16.5322 301.181 16.2149 299.381C15.957 297.919 16.1915 295.795 16.9184 293.01L16.9184 293.01C17.1973 291.941 16.5571 290.849 15.4883 290.57C15.4422 290.558 15.3957 290.548 15.3489 290.539Z" fill="#B1B1B1"/>
<path fill-rule="evenodd" clip-rule="evenodd" d="M211.678 384.402C210.559 387.388 210 389.623 210 391.106C210 392.909 210.3 395.54 210.901 399C212.993 399 231.794 399 267.303 399C268.769 394.154 267.923 391.539 264.765 391.152C261.607 390.766 258.984 390.417 256.895 390.106L230.68 378.419C230.176 378.194 229.584 378.421 229.359 378.925C229.356 378.934 229.352 378.942 229.348 378.951L227.663 383.039C224.74 384.403 222.364 385.085 220.537 385.085C219.052 385.085 217.001 384.485 214.384 383.285L214.384 383.285C213.38 382.825 212.193 383.266 211.733 384.27C211.713 384.313 211.695 384.357 211.678 384.402Z" fill="#B1B1B1"/>
<path fill-rule="evenodd" clip-rule="evenodd" d="M118 160C140.547 153.549 161.88 153.549 182 160C189 191.937 206.009 204.613 209 253.579C175 270.473 133 241.53 98 258.005C88 234.961 102 179.465 118 160Z" fill="white"/>
<path fill-rule="evenodd" clip-rule="evenodd" d="M215 120.311L254.483 114.925C262.381 110.532 269.647 107.558 276.281 106.003C278.148 105.948 281.117 106.627 276.693 110.315C272.269 114.003 267.78 118.083 268.569 120.051C269.357 122.02 273.471 121.287 274.153 124.315C274.607 126.333 267.93 126.661 254.121 125.299L222.084 138L215 120.311ZM90.9698 129.45L112.867 129.532C88.8561 183.566 76.3363 211.857 75.3079 214.406C72.994 220.14 77.8906 228.874 79.9846 233.567C73.1645 236.619 73.8912 225.317 65.2879 229.319C57.4352 232.973 51.4617 239.592 42.389 233.994C41.2736 233.306 40.0513 230.715 43.0046 228.69C50.3623 223.645 60.9653 214.815 62.3979 211.908C64.3516 207.945 73.8755 180.459 90.9698 129.45Z" fill="#EFAD83"/>
<path fill-rule="evenodd" clip-rule="evenodd" d="M150.949 60L168.094 61.1422C172.317 99.3434 195.316 123.473 246.811 115.304L253.652 164.499C205.523 170.719 163.313 151.45 154.662 99.2785C152.423 85.7729 150.655 71.7178 150.949 60Z" fill="#51B6FF"/>
<path fill-rule="evenodd" clip-rule="evenodd" d="M142.491 55.0159L168.468 60.9653C168.468 105.644 182.7 134.15 190 167H119.844C118.855 178.351 118.248 190.018 117.932 202H65.4016C77.3054 138.664 102.43 89.664 140.776 55H142.477L142.491 55.0159Z" fill="#8FD0FF"/>
<path fill-rule="evenodd" clip-rule="evenodd" d="M130.912 103.259C129.104 131.101 130.168 152.347 134.102 167H119.844C121.801 144.514 125.256 123.267 130.912 103.259V103.259Z" fill="black" fill-opacity="0.1"/>
</svg>
