<svg xmlns="http://www.w3.org/2000/svg" width="938" height="455" fill="none" viewBox="0 0 938 455"><path fill="#915B3C" fill-rule="evenodd" d="M782.274 73.3655C777.873 67.4032 775.111 60.2803 776.193 52.5911C779.312 30.4362 809.962 37.5013 815.205 49.1598C820.448 60.8184 817.739 89.2719 809.807 90.7354C806.643 91.3191 800.161 88.8942 793.708 84.3625L795.845 114.574L770.876 112.828L782.274 73.3655Z" clip-rule="evenodd"/><path fill="#191847" fill-rule="evenodd" d="M765.826 44.4187C765.075 43.5631 764.715 42.3916 764.41 41.2819C764.094 40.1291 763.789 38.9655 763.609 37.776C763.248 35.3993 763.432 32.7079 765.228 31.0077C766.669 29.6442 768.723 29.1311 770.587 29.1188C771.829 29.1104 773.085 29.3721 774.242 29.8441C775.39 30.3124 776.349 31.1528 777.454 31.7101C777.674 29.1915 778.29 26.5831 779.72 24.5194C781.096 22.5338 783.14 21.5085 785.397 21.3573C787.713 21.2021 789.941 21.8974 791.917 23.1517C792.412 23.4658 792.901 23.7928 793.366 24.1567C793.754 24.4615 794.156 24.8238 794.627 24.9696C795.152 25.1323 795.438 24.8424 795.812 24.4771C796.251 24.0488 796.738 23.6786 797.248 23.3559C799.503 21.9292 802.362 21.4778 804.781 22.5966C805.896 23.1121 806.958 23.9294 807.663 25.0026C808.292 25.9594 808.685 27.4347 809.597 28.1344C809.983 28.4314 810.295 28.0955 810.682 27.8582C811.264 27.5018 811.824 27.1026 812.412 26.7574C813.238 26.2724 814.12 25.928 815.049 25.7805C816.409 25.5644 818.254 25.7663 818.514 27.5459C818.611 28.2143 818.452 28.9108 818.359 29.5709C818.232 30.4773 818.102 31.3832 817.959 32.2872C817.851 32.9736 817.728 33.6353 817.55 34.3044C817.455 34.661 817.191 35.3197 817.32 35.6926C817.482 36.1586 818.395 35.9639 818.775 36.0063C819.528 36.0902 820.276 36.2755 820.951 36.6467C821.474 36.9344 822.017 37.3416 822.202 37.9772C822.316 38.3677 822.251 38.7561 822.158 39.1431C822.045 39.6075 822.119 39.8632 822.145 40.3416C823.193 39.9134 826.782 39.0504 827.097 40.8972C827.202 41.5122 826.819 42.172 826.528 42.6641C826.017 43.5272 825.372 44.3036 824.717 45.0412C823.35 46.58 821.756 47.8782 820.062 48.9653C821.889 49.9356 822.209 52.4431 820.473 53.8023C819.706 54.4024 818.727 54.4795 817.82 54.3742C817.489 54.3358 817.018 54.1742 816.752 54.2139C816.609 54.2352 816.449 54.3441 816.253 54.3438C814.964 54.342 813.537 53.9314 812.302 53.5589C810.102 52.8951 808.059 51.688 806.444 49.9541C806.03 49.5093 805.68 49.2455 805.083 49.2099C804.559 49.1786 804.036 49.2861 803.513 49.2628C802.128 49.2015 800.929 48.4385 799.677 47.899C799.477 49.6275 798.85 51.5029 798.031 53.0133C797.364 54.2451 796.143 54.3455 794.948 54.3741C791.127 54.4658 787.346 53.8009 783.545 53.5404C787.166 54.6292 790.944 55.2378 794.522 56.4714C796.139 57.0289 794.803 58.0518 794.044 58.7726C792.795 59.9596 791.822 61.4705 791.108 63.0839C789.472 60.6121 786.399 58.8439 783.531 59.3675C780.361 59.9459 777.874 64.0037 779.653 67.1705C780.686 69.0088 782.727 69.8333 784.411 70.7098C782.957 72.024 782.484 74.0819 781.546 75.7777C781.083 76.614 780.45 77.5518 779.529 77.7902C779.189 77.8784 778.798 77.8606 778.516 78.1136C778.167 78.4268 778.064 78.7969 777.628 79.0566C775.89 80.0931 773.307 79.8232 771.943 78.2166C770.71 76.7637 771.206 74.6356 772.412 73.3343C770.697 72.4746 767.545 71.3026 768.44 68.5999C764.63 68.0781 755.771 61.221 761.225 57.0443C758.518 55.2539 756.2 51.1789 758.251 47.8731C759.83 45.3275 763.155 44.3728 765.826 44.4187Z" clip-rule="evenodd"/><path fill="#784931" fill-rule="evenodd" d="M750.382 203.699L827.876 333.255L885.974 442.783H898.488L801.143 203.699L750.382 203.699Z" clip-rule="evenodd"/><path fill="#E4E4E4" fill-rule="evenodd" d="M878.322 437.727C877.156 440.841 876.572 443.172 876.572 444.718C876.572 446.599 876.886 449.343 877.512 452.951C879.694 452.951 899.301 452.951 936.333 452.951C937.862 447.898 936.979 445.169 933.686 444.767C930.393 444.364 927.657 444 925.479 443.675L898.139 431.487C897.613 431.252 896.997 431.489 896.762 432.015C896.758 432.024 896.754 432.033 896.75 432.042L894.993 436.305C891.944 437.727 889.467 438.439 887.561 438.439C886.012 438.439 883.874 437.813 881.145 436.562L881.145 436.562C880.098 436.082 878.86 436.542 878.38 437.589C878.359 437.634 878.34 437.68 878.322 437.727Z" clip-rule="evenodd"/><path fill="#5C63AB" fill-rule="evenodd" d="M869.838 425.244L893.971 417.944C883.398 386.336 870.439 351.552 855.094 313.593C839.749 275.634 823.27 239.003 805.655 203.699H737.496C757.079 248.357 777.841 288.934 799.78 325.431C821.718 361.928 845.071 395.199 869.838 425.244Z" clip-rule="evenodd"/><path fill="#915B3C" fill-rule="evenodd" d="M745.289 203.699C737.975 249.226 723.868 307.391 722.537 309.186C721.65 310.383 689.699 321.09 626.684 341.306L629.387 352.341C704.532 341.499 744.127 333.087 748.172 327.105C754.239 318.133 784.535 247.254 796.269 203.699H745.289Z" clip-rule="evenodd"/><path fill="#8991DC" fill-rule="evenodd" d="M648.835 331.767L653.596 349.539C709.8 354.469 744.237 350.907 756.908 338.854C769.579 326.801 784.02 281.749 800.231 203.699H735.237C724.966 267.612 719.224 300.909 718.011 303.592C716.797 306.275 693.739 315.667 648.835 331.767Z" clip-rule="evenodd"/><path fill="#E4E4E4" fill-rule="evenodd" d="M629.77 336.709C626.5 336.1 624.104 335.931 622.581 336.199C620.729 336.526 618.081 337.311 614.636 338.554C615.015 340.703 618.42 360.012 624.85 396.482C630.092 397.11 632.626 395.767 632.451 392.454C632.276 389.141 632.159 386.383 632.1 384.182L639.356 355.141C639.496 354.582 639.156 354.016 638.597 353.876C638.587 353.874 638.578 353.872 638.568 353.87L634.065 352.879C632.135 350.124 631.004 347.808 630.673 345.93C630.404 344.405 630.649 342.191 631.407 339.286L631.407 339.286C631.698 338.171 631.03 337.032 629.915 336.741C629.867 336.729 629.819 336.718 629.77 336.709Z" clip-rule="evenodd"/><path fill="#915B3C" fill-rule="evenodd" d="M843.459 193.421L871.979 223.255C880.441 227.22 887.339 231.512 892.671 236.131C893.853 237.663 895.097 240.562 889.336 239.083C883.575 237.604 877.448 236.307 876.291 238.157C875.134 240.007 878.248 243.013 876.146 245.413C874.744 247.014 870.405 241.616 863.131 229.22L833.06 210.047L843.459 193.421ZM696.971 157.26L714.481 163.724C686.143 201.681 671.015 221.724 669.098 223.855C664.785 228.65 666.468 238.955 666.846 244.302C659.074 244.86 663.818 234.043 653.959 234.897C644.96 235.676 636.745 240.033 629.85 231.31C629.003 230.238 628.729 227.262 632.346 226.331C641.356 224.011 654.896 219.14 657.337 216.803C660.665 213.616 673.877 193.768 696.971 157.26Z" clip-rule="evenodd"/><path fill="#78B2C5" fill-rule="evenodd" d="M850.63 197.382C854.899 197.823 859.36 199.33 863.984 201.853C866.259 203.094 867.097 205.945 865.856 208.22C865.135 209.542 863.871 210.378 862.492 210.604C863.312 211.456 864.14 212.306 864.978 213.154L853.738 228.569C822.017 205.095 791.633 186.257 781.785 155.003C778.48 144.513 785.927 112.173 787.544 100.216L799.322 97.6478C809.053 131.998 824.421 166.017 850.63 197.382Z" clip-rule="evenodd"/><path fill="#191847" fill-rule="evenodd" d="M729.494 203.802C761.157 213.042 786.572 217.524 805.738 217.246C808.113 217.211 809.758 207.291 809.169 204.399C800.006 159.359 794.53 126.605 799.688 97.3535C796.364 98.4068 790.995 97.7057 783.581 95.2504C757.813 121.789 742.313 154.719 729.494 203.802Z" clip-rule="evenodd"/><path fill="#78B2C5" fill-rule="evenodd" d="M722.616 207.723C721.702 206.498 721.403 204.851 721.965 203.307L723.035 200.367C723.76 198.374 725.694 197.171 727.707 197.285C728.323 195.805 728.89 194.327 729.404 192.851C733.74 180.382 732.417 167.173 734.762 154.845C715.762 166.023 696.657 187.741 677.446 219.999L659.054 210.871C660.279 208.252 661.525 205.671 662.791 203.129C660.776 201.462 659.188 195.171 661.243 194.528C663.365 193.863 665.55 193.517 667.793 193.482C695.025 143.048 731.019 108.999 775.774 91.3337L779.347 91.9637L787.454 93.3933C775.996 138.265 805.989 245.931 774.544 327.819C742.858 329.251 703.07 300.395 657.722 309.848C665.319 275.978 703.97 241.429 722.616 207.723L722.616 207.723Z" clip-rule="evenodd"/><path fill="#000" fill-opacity=".1" fill-rule="evenodd" d="M779.834 93.1087L771.662 108.469L780.179 122.566L768.843 130.465L785.129 174.525L763.629 129.628L774.807 121.619L767.239 109.154L779.834 93.1087Z" clip-rule="evenodd"/><path fill="#000" fill-opacity=".4" fill-rule="evenodd" d="M775.571 188.724C773.302 188.324 771.787 186.161 772.187 183.892C772.587 181.623 774.75 180.108 777.019 180.508C779.288 180.908 780.803 183.072 780.403 185.341C780.003 187.609 777.839 189.124 775.571 188.724ZM776.541 213.252C774.272 212.852 772.757 210.688 773.157 208.419C773.557 206.151 775.72 204.636 777.989 205.036C780.258 205.436 781.773 207.599 781.373 209.868C780.973 212.137 778.809 213.652 776.541 213.252ZM773.402 237.055C771.134 236.655 769.619 234.492 770.019 232.223C770.419 229.954 772.582 228.439 774.851 228.839C777.12 229.239 778.635 231.403 778.235 233.672C777.835 235.94 775.671 237.455 773.402 237.055Z" clip-rule="evenodd"/><path fill="#F2C9A4" fill-rule="evenodd" d="M639.262 165.49C634.654 160.081 631.536 153.453 632.057 146.025C633.558 124.625 663.349 129.333 669.143 140.134C674.938 150.935 674.25 178.333 666.76 180.263C663.774 181.033 657.411 179.147 650.935 175.244L655 204H631L639.262 165.49Z" clip-rule="evenodd"/><path fill="#C15619" fill-rule="evenodd" d="M659.664 128.37C656.384 127.37 651.623 127.031 649.621 127.26C650.76 124.531 651.212 121.49 650.844 118.529C650.485 115.652 649.2 113.202 648.011 110.635C647.463 109.452 646.842 108.275 645.916 107.37C644.972 106.448 643.778 105.84 642.526 105.549C641.245 105.252 639.905 105.277 638.622 105.547C638.054 105.666 637.545 105.925 636.988 106.07C636.418 106.218 636.141 105.861 635.727 105.502C634.73 104.638 633.268 104.211 632.006 104.059C630.59 103.887 629.121 104.101 627.771 104.566C626.457 105.019 625.195 105.755 624.245 106.827C623.822 107.304 623.438 107.847 623.188 108.446C623.086 108.692 623.069 108.838 622.823 108.928C622.596 109.012 622.331 109.014 622.096 109.094C619.831 109.861 617.893 111.612 616.838 113.86C616.223 115.171 615.932 117.48 616.011 120.068C616.091 122.656 618.428 129.408 620.613 131.871C622.564 134.07 625.432 135.52 628.199 136.155C626.362 138.255 625.14 140.878 624.235 143.547C623.253 146.445 622.645 149.457 622.421 152.525C622.208 155.44 622.188 158.524 622.871 161.377C623.511 164.045 624.878 166.234 627.161 167.622C628.206 168.258 629.331 168.736 630.463 169.173C631.578 169.603 632.696 170.022 633.864 170.263C636.075 170.72 638.622 170.642 640.325 168.882C640.939 168.248 641.614 167.451 642.061 166.676C642.222 166.397 642.32 166.215 642.124 165.943C641.89 165.616 641.511 165.366 641.21 165.111C639.493 163.656 638.43 161.713 638.163 159.405C637.891 157.063 638.52 154.039 640.797 153.017C643.608 151.755 646.704 153.204 649.203 154.554C650.265 150.806 652.445 147.431 655.863 145.712C659.645 143.811 663.985 143.588 667.871 141.956C668.884 141.531 669.915 141.048 670.661 140.182C670.973 139.82 671.338 139.35 671.463 138.871C671.626 138.242 671.22 137.715 670.907 137.224C669.245 134.624 662.943 129.37 659.664 128.37Z" clip-rule="evenodd"/><path fill="#F2C9A4" fill-rule="evenodd" d="M749.884 305.096C757.064 295.358 775.011 301.804 775 309.866C774.972 331.031 755.657 431.512 754.648 437.856C753.64 444.2 742.837 446.275 742.208 438.348C741.207 425.736 739.347 382.013 741.208 361.672C741.751 355.73 742.324 349.987 742.901 344.607C732.75 362.843 717.314 388.619 696.593 421.934L685.077 416.672C694.12 386.876 701.536 365.841 707.323 353.566C717.233 332.55 726.525 314.552 730.436 308.212C735.602 299.838 743.981 300.949 749.884 305.096Z" clip-rule="evenodd"/><path fill="#1F28CF" fill-rule="evenodd" d="M685.9 400.125L725.427 306.487C734.897 291.255 761.446 309.587 758.217 318.422C750.886 338.479 713.6 403.414 711.415 409.39L685.9 400.125Z" clip-rule="evenodd"/><path fill="#2B44FF" fill-rule="evenodd" d="M776 317.177C776 343.718 764.366 406.106 764.358 411.95L736.176 411C741.102 356.757 743.18 329.452 742.409 329.084C740.673 328.257 671.262 338.691 650.445 339.479C620.426 340.615 608.008 322.199 607 287.251H665.148C714.869 293.186 747.548 297.314 763.185 299.634C773.226 301.125 776 309.865 776 317.177Z" clip-rule="evenodd"/><path fill="#E4E4E4" fill-rule="evenodd" d="M683.518 413.736C681.71 416.363 680.627 418.396 680.268 419.835C679.832 421.585 679.487 424.211 679.233 427.713C681.262 428.219 699.504 432.767 733.959 441.358C736.553 437.011 736.365 434.268 733.395 433.129C730.424 431.99 727.963 431.017 726.012 430.209L703.403 412.528C702.968 412.188 702.339 412.264 701.999 412.7C701.993 412.707 701.988 412.714 701.982 412.722L699.358 416.281C696.192 416.897 693.722 416.984 691.948 416.542C690.507 416.182 688.663 415.104 686.414 413.308L686.414 413.308C685.551 412.618 684.293 412.759 683.603 413.622C683.573 413.659 683.545 413.697 683.518 413.736Z" clip-rule="evenodd"/><path fill="#E4E4E4" fill-rule="evenodd" d="M740.678 423.402C739.559 426.388 739 428.623 739 430.106C739 431.909 739.3 434.54 739.901 438C741.993 438 760.794 438 796.303 438C797.769 433.154 796.923 430.539 793.765 430.152C790.607 429.766 787.984 429.417 785.895 429.106L759.68 417.419C759.176 417.194 758.584 417.421 758.359 417.925C758.356 417.934 758.352 417.942 758.348 417.951L756.663 422.039C753.74 423.403 751.364 424.085 749.537 424.085C748.052 424.085 746.001 423.485 743.384 422.285L743.384 422.285C742.38 421.825 741.193 422.266 740.733 423.27C740.713 423.313 740.695 423.357 740.678 423.402Z" clip-rule="evenodd"/><path fill="#050A3D" d="M789.5 438H743.5C741.567 438 740 439.567 740 441.5C740 443.433 741.567 445 743.5 445H789.5C791.433 445 793 443.433 793 441.5C793 439.567 791.433 438 789.5 438Z"/><path fill="#050A3D" fill-rule="evenodd" d="M604 293H711C716.523 293 721 297.477 721 303V352H598C595.791 352 594 350.209 594 348V303C594 297.477 598.477 293 604 293Z" clip-rule="evenodd"/><path fill="#050A3D" fill-rule="evenodd" d="M711 293H713.194C718.091 293 722.268 296.547 723.062 301.38L745 435H734.314" clip-rule="evenodd"/><path fill="#000" d="M740 455C749.941 455 758 446.941 758 437C758 427.059 749.941 419 740 419C730.059 419 722 427.059 722 437C722 446.941 730.059 455 740 455Z"/><path fill="#000" fill-rule="evenodd" d="M607 453C565.026 453 531 418.974 531 377C531 335.026 565.026 301 607 301C648.974 301 683 335.026 683 377C683 418.974 648.974 453 607 453ZM607 439C641.242 439 669 411.242 669 377C669 342.758 641.242 315 607 315C572.758 315 545 342.758 545 377C545 411.242 572.758 439 607 439Z" clip-rule="evenodd"/><path fill="#000" d="M611 311H603V443H611V311Z"/><path fill="#000" d="M655.083 331.745L652.255 328.917C651.474 328.136 650.207 328.136 649.426 328.917L558.917 419.426C558.136 420.207 558.136 421.474 558.917 422.255L561.745 425.083C562.526 425.864 563.793 425.864 564.574 425.083L655.083 334.574C655.864 333.793 655.864 332.526 655.083 331.745Z"/><path fill="#000" d="M673 379V375C673 373.895 672.105 373 671 373H543C541.895 373 541 373.895 541 375V379C541 380.105 541.895 381 543 381H671C672.105 381 673 380.105 673 379Z"/><path fill="#000" d="M652.255 425.083L655.083 422.255C655.864 421.474 655.864 420.207 655.083 419.426L564.574 328.917C563.793 328.136 562.526 328.136 561.745 328.917L558.917 331.745C558.136 332.526 558.136 333.793 558.917 334.574L649.426 425.083C650.207 425.864 651.474 425.864 652.255 425.083Z"/><path fill="#F2C9A4" fill-rule="evenodd" d="M708.456 184.341L746.36 172.962C753.431 167.458 760.101 163.433 766.369 160.889C768.192 160.545 771.21 160.745 767.438 165.023C763.667 169.301 759.892 173.971 760.969 175.765C762.046 177.559 765.969 176.206 767.105 179.048C767.862 180.942 761.362 182.299 747.605 183.118L718.134 200.463L708.456 184.341ZM705.107 251.168L737.005 274.592C745.657 276.926 752.885 279.831 758.689 283.305C760.06 284.555 761.717 287.085 756.031 286.648C750.345 286.21 744.344 286.006 743.559 287.946C742.774 289.885 746.215 292.205 744.629 294.822C743.572 296.566 738.577 292.192 729.643 281.698L698.055 268.599L705.107 251.168Z" clip-rule="evenodd"/><path fill="#0090F9" fill-rule="evenodd" d="M655.561 188.087C672.931 220.476 698.05 245.305 734.466 271.116L720.677 286.663C680.018 271.553 658.559 262.436 648.021 231.835C645.376 224.154 643.528 199.671 641.942 186.789L655.561 188.087Z" clip-rule="evenodd"/><path fill="#F2F2F2" fill-rule="evenodd" d="M607 296H684C666.558 242.805 657.648 206.296 657.27 186.472C657.251 185.461 655.384 183.68 654.559 183.913C648.52 185.619 642.057 184.981 635.172 182C616.917 211.358 610.605 247.505 607 296Z" clip-rule="evenodd"/><path fill="#51B6FF" fill-rule="evenodd" d="M641.743 182.047C663.814 182.228 699.624 186.259 740.923 173L745 193.373C713.787 213.448 682.181 228.999 654.486 226.791C666.512 278.377 665.958 320.606 639.407 320.606C626.728 320.606 613.043 320.606 598.351 320.606C591.83 276.784 608.968 216.024 624.856 185.377C625.463 184.206 626.754 182 629.797 182C632.448 182 636.425 182 641.727 182C641.732 182.016 641.737 182.032 641.743 182.047Z" clip-rule="evenodd"/><path fill="#B28B67" fill-rule="evenodd" d="M340.113 62.9387C337.427 55.726 336.708 47.8234 339.99 40.4562C349.447 19.229 378.026 35.0579 379.923 48.1992C381.82 61.3405 370.969 88.9737 362.63 88.1641C359.305 87.8412 353.527 83.5643 348.381 77.1922L341.865 107.968L317.436 99.0768L340.113 62.9387Z" clip-rule="evenodd"/><path fill="#2C2C2C" fill-rule="evenodd" d="M377.057 38.9456C376.619 38.4079 375.704 37.2773 375.204 36.8062C375.086 36.6936 374.359 35.6349 374.329 35.6341C373.494 35.6144 371.002 35.7569 370.525 36.4904C370.475 36.5407 370.426 36.5874 370.38 36.6271C369.873 37.071 369.386 37.5379 368.909 38.0163C367.863 39.0666 366.876 40.2032 365.915 41.3376C364.045 43.547 362.276 45.8607 360.572 48.2045C358.836 50.5903 357.205 53.0495 355.504 55.4602C353.055 58.9292 350.349 62.1971 347.908 65.6671C346.35 67.8827 345.076 70.2345 344.33 72.827C344.32 72.8581 344.31 72.8884 344.302 72.9203C344.298 72.9333 344.295 72.9464 344.292 72.9595C344.18 73.359 344.08 73.7642 343.995 74.1756C343.922 74.5278 343.849 74.8812 343.78 75.2358C345.419 73.6878 346.904 71.8651 348.394 70.1646C348.54 69.9981 348.682 69.829 348.824 69.6586C349.218 69.3472 349.616 69.0405 350.017 68.7364C352.542 66.8184 355.069 64.912 357.545 62.9247C361.996 59.3503 366.457 55.6694 371.289 52.6578C372.716 51.7685 374.158 50.9064 375.576 50.0025C376.383 49.488 377.18 48.9565 377.965 48.4058C378.526 48.0119 380.799 46.7548 380.621 45.4376C380.53 44.7637 378.193 40.3404 377.057 38.9456Z" clip-rule="evenodd"/><path fill="#78B2C5" fill-rule="evenodd" d="M375.347 36.9628C375.825 37.3437 375.972 36.115 375.59 35.5247C373.82 32.7898 364.729 28.7221 355.991 27.4517C350.138 26.6007 342.785 27.1088 337.122 29.1415C332.018 30.9741 327.422 35.2172 324.197 39.7595C320.811 44.5291 318.58 49.974 317.413 55.704C317.157 56.9626 317.126 58.2397 316.914 59.4858C316.676 60.8891 316.338 62.2009 316.301 63.637C316.278 64.5163 316.444 65.4469 316.381 66.3166C316.309 67.309 315.851 68.0844 315.331 68.9314C314.485 70.3118 313.567 71.6627 312.513 72.8919C310.931 74.7377 309.227 76.3854 307.808 78.3819C305.919 81.0383 299.018 89.4076 300.553 92.9318L347.904 110.166C347.895 106.48 345.709 101.349 346.252 97.6041C346.572 95.3977 347.999 90.8447 348.014 90.6657C349.624 82.9217 348.819 78.6507 347.978 76.901C347.137 75.1512 345.541 74.1266 345.854 72.9883C347.149 68.2802 350.562 64.5601 353.449 60.7772C356.89 56.2686 359.953 51.4793 363.436 47.0058C364.979 45.0249 372.867 34.9849 375.347 36.9628Z" clip-rule="evenodd"/><path fill="#000" fill-opacity=".2" fill-rule="evenodd" d="M356.83 36.1815C352.983 41.1972 351.498 44.0817 349.064 51.9626L348.188 51.6438C349.211 43.7429 353.171 37.3957 355.729 35.7808L356.83 36.1815ZM327.553 42.084C327.942 51.3691 327.724 56.6891 334.638 66.6048L333.738 66.846C326.416 58.2609 326 51.0473 326.731 42.1656L327.553 42.084ZM344.216 38.8436C341.556 50.8539 339.615 57.5606 342.925 72.9622L341.994 72.9134C337.864 59.0492 339.822 49.6731 343.411 38.6219L344.216 38.8436ZM323.128 69.7208L324.162 69.1104C332.827 75.7329 329.436 81.6603 339.422 92.5477L338.165 92.7967C329 84.4202 329.954 73.956 323.128 69.7208Z" clip-rule="evenodd"/><path fill="#997659" fill-rule="evenodd" d="M284.164 194.467L364.655 329.032L425 442.796H437.997L336.889 194.467L284.164 194.467Z" clip-rule="evenodd"/><path fill="#E4E4E4" fill-rule="evenodd" d="M417.052 437.544C415.84 440.779 415.234 443.2 415.234 444.806C415.234 446.759 415.56 449.61 416.211 453.357C418.477 453.357 438.842 453.357 477.307 453.357C478.894 448.109 477.978 445.275 474.557 444.856C471.136 444.438 468.295 444.06 466.032 443.723L437.636 431.063C437.089 430.82 436.449 431.065 436.205 431.612C436.201 431.621 436.197 431.63 436.193 431.64L434.368 436.068C431.201 437.545 428.628 438.284 426.648 438.284C425.04 438.284 422.818 437.634 419.984 436.335L419.984 436.335C418.896 435.836 417.61 436.314 417.112 437.402C417.09 437.448 417.07 437.496 417.052 437.544Z" clip-rule="evenodd"/><path fill="#0094FF" fill-rule="evenodd" d="M408.24 424.579L433.306 416.997C422.324 384.166 408.864 348.038 392.926 308.611C376.988 269.184 359.871 231.136 341.575 194.467H270.78C291.121 240.852 312.685 282.998 335.472 320.906C358.26 358.815 382.516 393.372 408.24 424.579Z" clip-rule="evenodd"/><path fill="#B28B67" fill-rule="evenodd" d="M278.875 194.467C271.278 241.754 256.626 302.169 255.243 304.034C254.321 305.276 221.134 316.397 155.683 337.395L158.491 348.857C236.541 337.595 277.667 328.858 281.869 322.645C288.171 313.326 319.638 239.706 331.826 194.467H278.875Z" clip-rule="evenodd"/><path fill="#51B6FF" fill-rule="evenodd" d="M178.69 327.487L183.636 345.947C242.013 351.067 277.782 347.368 290.943 334.848C304.104 322.329 319.103 275.535 335.941 194.467H268.434C257.766 260.851 251.802 295.436 250.541 298.223C249.281 301.01 225.331 310.765 178.69 327.487Z" clip-rule="evenodd"/><path fill="#E4E4E4" fill-rule="evenodd" d="M158.888 332.62C155.492 331.988 153.003 331.812 151.421 332.091C149.498 332.43 146.747 333.245 143.17 334.537C143.563 336.769 147.099 356.825 153.779 394.705C159.223 395.357 161.855 393.962 161.673 390.521C161.491 387.08 161.37 384.215 161.309 381.929L168.845 351.765C168.99 351.185 168.637 350.597 168.057 350.452C168.047 350.449 168.037 350.447 168.027 350.445L163.349 349.416C161.345 346.554 160.17 344.148 159.826 342.198C159.547 340.614 159.801 338.314 160.588 335.297L160.589 335.297C160.891 334.139 160.197 332.956 159.039 332.654C158.989 332.641 158.939 332.629 158.888 332.62Z" clip-rule="evenodd"/><path fill="#B28B67" fill-rule="evenodd" d="M378.221 194.451L402.781 229.589C410.854 235.025 417.264 240.538 422.01 246.129C422.981 247.887 423.795 251.051 418.102 248.596C412.41 246.141 406.312 243.813 404.824 245.512C403.335 247.212 406.058 250.791 403.507 252.897C401.807 254.301 398.209 248.079 392.714 234.229L364.844 209.721L378.221 194.451ZM237.772 144.46L255.654 152.121C224.181 189.719 207.392 209.564 205.286 211.657C200.548 216.365 201.76 227.101 201.874 232.643C193.758 232.782 199.259 221.879 188.956 222.205C179.552 222.503 170.776 226.539 164.059 217.144C163.233 215.989 163.104 212.901 166.915 212.143C176.412 210.255 190.756 205.988 193.418 203.712C197.048 200.608 211.832 180.857 237.772 144.46Z" clip-rule="evenodd"/><path fill="#C5CFD6" fill-rule="evenodd" d="M335.651 90.1131L348.189 89.4223C353.447 132.332 366.723 176.044 397.199 218.127L383.151 232.024C354.273 202.855 326.026 178.638 320.915 145.11C319.2 133.857 332.065 102.058 335.651 90.1131Z" clip-rule="evenodd"/><path fill="#323337" fill-rule="evenodd" d="M266.868 188.483C298.951 200.799 324.936 207.762 344.823 209.371C347.287 209.57 348.702 205.771 348.322 202.833C342.402 157.083 340.405 118.012 348.073 89.3915C344.545 90.1132 339.035 88.887 331.546 85.7127C302.732 109.604 284.052 140.87 266.868 188.483Z" clip-rule="evenodd"/><path fill="#DDE3E9" fill-rule="evenodd" d="M327.01 81.8476L335.725 84.1827C334.584 96.5591 298.049 258.506 303.762 316.216L196.858 287.571C212.041 240.175 245.779 187.393 277.233 144.089C256.875 154.559 235.855 175.911 214.174 208.145L195.515 197.683C227.448 138.061 270.588 99.509 324.933 82.0264C325.095 81.8235 325.256 81.6215 325.416 81.4205L326.188 81.6272C326.52 81.5226 326.852 81.4188 327.186 81.3158L327.01 81.8476V81.8476Z" clip-rule="evenodd"/><path fill="#F3AE6D" fill-rule="evenodd" d="M429.007 66.3182C424.073 60.4871 420.735 53.3409 421.292 45.3335C422.9 22.2619 454.793 27.3374 460.997 38.9819C467.201 50.6265 466.464 80.1639 458.446 82.2452C455.248 83.0751 448.436 81.042 441.504 76.8341L445.855 107.835H420.161L429.007 66.3182Z" clip-rule="evenodd"/><path fill="#91734F" fill-rule="evenodd" d="M442.788 47.8816C443.772 61.6781 446.374 68.5763 450.593 68.5763C456.924 68.5763 462.294 64.5295 465.072 64.5295C467.097 64.5295 466.645 67.0811 465.302 68.9728C464.195 70.5336 458.803 72.038 458.803 74.4577C458.803 76.8774 463.063 75.0054 463.063 76.4405C463.063 78.8143 463.812 83.2775 459.721 83.2775C455.58 83.2775 443.708 81.758 441.674 75.5696C440.361 71.5759 439.512 63.3 439.127 50.742C438.876 50.712 438.62 50.6965 438.361 50.6965C434.813 50.6965 431.938 53.5926 431.938 57.1651C431.938 58.9786 432.679 60.6179 433.873 61.7925C432.386 63.9051 430.721 66.112 428.812 68.3893C421.641 64.0569 416.32 51.3746 423.331 39.1915C425.268 33.2231 429.655 30.0352 434.836 28.5549C439.033 26.7871 443.39 26.5878 447.067 27.6476C454.276 28.2703 460.714 30.484 462.538 31.7986C462.538 38.6717 461.216 40.7109 449.92 40.5312C447.144 42.0073 445.011 44.5491 442.788 47.8816Z" clip-rule="evenodd"/><path fill="#6D9AA8" fill-rule="evenodd" d="M411.596 197.317L450.411 334.479L478.73 435.574H499.385L469.291 197.317H411.596Z" clip-rule="evenodd"/><path fill="#78B2C5" fill-rule="evenodd" d="M401.216 197.317C400.318 268.012 397.257 306.57 396.314 312.993C395.372 319.416 381.119 360.277 353.556 435.574H374.953C410.043 363.339 429.631 322.479 433.717 312.993C437.804 303.508 450.414 264.949 469.408 197.317H401.216Z" clip-rule="evenodd"/><path fill="#000" fill-rule="evenodd" d="M351.643 454.98L352.714 432.34H375.196C385.857 439.887 399.774 445.996 416.949 450.668V454.98H376.267L362.349 452.824V454.98H351.643Z" clip-rule="evenodd"/><path fill="#000" fill-rule="evenodd" d="M475.832 454.98L476.902 432.34H499.385C510.045 439.887 523.963 445.996 541.138 450.668V454.98H500.455L486.538 452.824V454.98H475.832Z" clip-rule="evenodd"/><path fill="#F3AE6D" fill-rule="evenodd" d="M501.91 179.647L534.228 207.237C543.293 210.398 550.795 214.065 556.735 218.239C558.106 219.685 559.687 222.531 553.647 221.633C547.606 220.735 541.213 220.064 540.23 222.091C539.247 224.118 542.749 226.872 540.859 229.567C539.6 231.364 534.592 226.283 525.834 214.325L493.078 197.863L501.91 179.647ZM355.569 167.708L374.531 170.481C354.177 214.952 343.265 238.47 341.795 241.037C338.488 246.812 342.378 256.871 343.898 262.196C336.213 264.43 338.667 252.473 328.95 255.456C320.081 258.178 312.761 264.349 303.977 257.011C302.897 256.109 301.987 253.159 305.42 251.44C313.972 247.158 326.529 239.322 328.48 236.434C331.142 232.496 340.172 209.587 355.569 167.708Z" clip-rule="evenodd"/><path fill="#C5CFD6" fill-rule="evenodd" d="M434.823 89.8657L446.572 85.9529C462.511 126.047 486.281 164.841 525.997 197.608L516.175 214.67C481.271 193.966 448.23 177.882 434.823 146.813C430.323 136.386 434.456 102.334 434.823 89.8657Z" clip-rule="evenodd"/><path fill="#8991DC" fill-rule="evenodd" d="M394.467 202.707C428.124 206.301 454.617 206.301 473.943 202.707C476.338 202.262 476.716 198.225 475.605 195.485C458.313 152.818 446.455 115.588 446.455 85.9529C443.282 87.5637 437.729 87.8051 429.796 86.6771C408.477 117.218 398.677 152.259 394.467 202.707Z" clip-rule="evenodd"/><path fill="#DCE5ED" fill-rule="evenodd" d="M424.496 84.1173H433.381C435.45 96.3696 441.975 262.285 462.118 316.56H353.126C355.489 266.84 374.129 207.114 393.011 157.134C376.314 172.52 361.762 198.59 349.354 235.344L328.939 230.067C344.118 164.199 375.327 115.786 422.566 84.8278C422.668 84.5898 422.77 84.353 422.871 84.1173H423.658C423.947 83.9303 424.237 83.7439 424.528 83.5581L424.496 84.1173V84.1173Z" clip-rule="evenodd"/><path fill="#7B4627" fill-rule="evenodd" d="M145.086 79.3241C139.629 74.311 135.558 67.8461 135.153 60.0916C133.988 37.7486 165.422 38.8356 172.794 49.2795C180.165 59.7235 182.934 88.1712 175.427 91.1214C172.433 92.2979 165.608 91.1544 158.409 87.9372L166.271 117.186L141.428 120.237L145.086 79.3241Z" clip-rule="evenodd"/><path fill="#FFC062" fill-rule="evenodd" d="M157.052 38.1322C153.711 37.9973 144.85 38.7106 143.224 38.9105C142.185 39.0381 141.089 39.4137 140.356 38.5353C139.756 37.8159 139.779 36.472 139.517 35.5839C139.213 34.5522 138.837 33.5431 138.459 32.537C137.383 29.674 135.958 26.9993 134.124 24.5492C130.683 19.9526 126.055 16.5892 120.536 14.9791C114.441 13.2013 107.821 13.4358 101.656 14.7051C95.0589 16.0633 89.2971 19.0036 83.2599 21.8462C77.5067 24.5549 71.3226 26.1024 64.9338 25.909C58.4969 25.7143 53.3028 22.8762 47.5749 20.2805C41.7111 17.6232 35.2095 16.2125 28.8218 17.5046C22.8591 18.7109 17.6159 21.8779 13.0456 25.8096C8.76957 29.4882 5.3855 33.6979 3.86176 39.225C2.22251 45.1705 2.98733 51.3819 7.43966 55.9118C13.8932 62.4779 24.4516 63.0844 33.0214 61.843C37.9783 61.1252 42.7482 59.6186 47.238 57.3921C53.2256 54.4226 58.1753 50.0279 63.6581 46.2822C66.2312 44.5244 68.9279 43.0091 71.8015 41.8033C74.5899 40.6329 77.3891 39.9094 80.2187 41.3332C83.2121 42.8395 85.9141 44.3485 89.2211 45.1155C92.3936 45.8513 95.686 46.0765 98.918 45.6543C105.206 44.8329 111.17 42.1099 117.122 40.0457C121.976 38.3625 127.178 36.6402 132.387 37.0457C134.561 37.215 137.767 37.7217 138.804 39.8316C126.199 43.751 123.093 60.3164 128.165 71.5744C130.902 77.6507 143.6 83.5876 147.777 79.7037C150.423 77.2431 148.32 74.6975 146.955 73.0142C144.341 69.7906 143.043 65.397 146.788 62.4694C150.019 59.9443 154.297 64.4733 154.366 64.4593C155.315 64.266 163.024 58.564 167.892 51.0269C173.563 50.6693 173.962 46.8519 172.244 43.9809C170.527 41.1098 161.667 38.3191 157.052 38.1322Z" clip-rule="evenodd"/><path fill="#784931" fill-rule="evenodd" d="M149.933 205.503L188.135 337.145L206.104 435.983H224.139L206.136 205.503H149.933Z" clip-rule="evenodd"/><path fill="#7B4627" fill-rule="evenodd" d="M132.765 205.503C135.43 273.891 134.379 311.191 133.783 317.404C133.186 323.617 129.799 365.229 106.72 438.069H125.477C156.042 368.192 166.712 326.58 170.218 317.404C173.724 308.228 184.077 270.928 199.193 205.503H132.765Z" clip-rule="evenodd"/><path fill="#78B2C5" fill-rule="evenodd" d="M149.113 205.503C159.05 250.802 176.237 323.109 200.673 422.426H227.051C229 320.487 220.712 253.394 206.359 205.503H149.113Z" clip-rule="evenodd"/><path fill="#DCE5ED" fill-rule="evenodd" d="M132.632 205.503C135.242 273.891 128.477 341.265 107.519 423.49H135.663C166.284 354.656 188.232 287.614 203.231 205.503H132.632Z" clip-rule="evenodd"/><path fill="#000" fill-rule="evenodd" d="M104.046 451.627L105.081 434.94C111.141 436.713 118.731 436.018 127.851 432.855C137.657 439.801 150.002 444.544 164.886 447.084C166.021 447.278 166.785 448.356 166.591 449.491C166.578 449.565 166.562 449.637 166.541 449.709L165.11 454.755H127.851H106.116L104.046 451.627Z" clip-rule="evenodd"/><path fill="#000" fill-rule="evenodd" d="M202.078 451.627L203.113 434.94C209.173 436.713 216.763 436.018 225.883 432.855C235.689 439.801 248.034 444.544 262.918 447.084C264.053 447.278 264.817 448.356 264.623 449.491C264.61 449.565 264.594 449.637 264.574 449.709L263.143 454.755H225.883H204.148L202.078 451.627Z" clip-rule="evenodd"/><path fill="#7B4627" fill-rule="evenodd" d="M236.057 181.828L273.06 200.109C282.368 200.94 290.318 202.614 296.909 205.131C298.543 206.166 300.703 208.465 294.784 209.045C288.864 209.626 282.664 210.503 282.209 212.637C281.755 214.771 285.709 216.53 284.554 219.505C283.784 221.489 277.861 217.9 266.786 208.74L231.971 201.008L236.057 181.828ZM110.417 204.838L131.894 201.138C126.186 246.255 123.034 270.216 122.439 273.02C121.101 279.328 127.712 287.412 130.712 291.853C124.26 296.222 122.96 284.483 114.849 290.152C107.445 295.326 102.509 303.206 92.1771 299.1C90.9069 298.595 89.1822 296.155 91.8487 293.54C98.4918 287.026 107.783 276.037 108.728 272.793C110.016 268.368 110.579 245.717 110.417 204.838Z" clip-rule="evenodd"/><path fill="#5C63AB" fill-rule="evenodd" d="M155.53 104.023L164.143 100.934C202.113 123.589 225.29 175.888 270.788 197.735L263.191 211.499C191.592 215.179 162.463 151.538 155.53 104.023Z" clip-rule="evenodd"/><path fill="#fff" fill-rule="evenodd" d="M136.495 222.457C172.105 216.179 198.299 211.56 215.076 208.601C218.667 207.968 217.076 202.903 216.096 200.378C204.781 171.238 175.656 142.812 168.077 99.8294L144.784 100.272C131.353 133.73 131.415 171.997 136.495 222.457Z" clip-rule="evenodd"/><path fill="#8991DC" fill-rule="evenodd" d="M121.708 134.901C118.249 134.535 115.253 132.788 112.719 129.659C101.799 116.171 103.339 107.413 111.716 103.146C120.093 98.8796 128.971 103.06 143.077 100.573C143.844 100.437 144.556 100.362 145.211 100.345L152.378 99.499C184.903 164.907 198.635 209.951 193.574 234.632L131.724 245.537C129.566 254.728 127.327 262.536 125.007 268.96L108.154 271.932C97.5256 220.928 102.043 175.251 121.708 134.901Z" clip-rule="evenodd"/><path fill="#000" fill-opacity=".1" fill-rule="evenodd" d="M138.944 207.727C143.759 223.659 149.003 234.913 154.677 241.49L131.724 245.537C134.241 234.816 136.648 222.213 138.944 207.727L138.944 207.727Z" clip-rule="evenodd"/></svg>