<svg width="652" height="560" viewBox="0 0 652 560" fill="none" xmlns="http://www.w3.org/2000/svg">
<path fill-rule="evenodd" clip-rule="evenodd" d="M9.27495 455.574C25.5812 371.6 190.582 419.439 298.754 393.478C406.926 367.518 534.903 246.614 619.601 305.839C704.298 365.063 614.181 508.226 419.922 540.533C225.662 572.84 -7.03135 539.547 9.27495 455.574Z" fill="#78B2C5"/>
<g opacity="0.5">
<path opacity="0.5" fill-rule="evenodd" clip-rule="evenodd" d="M52.3717 63.3705C50.7987 64.9415 51.4097 70.5225 51.3767 72.5885C51.3261 75.8035 51.5262 78.9905 51.795 82.1945C51.9752 84.3405 52.9905 104.813 55.8166 103.241C57.4096 102.355 56.4106 96.4315 56.4076 94.5585C56.4016 90.3945 56.2276 86.2405 55.9506 82.0845C55.6926 78.2275 55.5306 74.4145 55.6786 70.5495C55.7146 69.6065 56.5976 59.1375 52.3717 63.3705Z" fill="#0090BD"/>
<path opacity="0.5" fill-rule="evenodd" clip-rule="evenodd" d="M120.873 60.8475C107.36 60.9545 93.8516 61.6215 80.3446 62.0295C73.8446 62.2265 67.3496 62.4765 60.8576 62.8365C58.6446 62.9595 53.8998 62.2505 52.0566 63.4295C47.9649 66.0465 54.5637 66.6585 56.3226 66.5945C83.0536 65.6255 109.793 64.3485 136.546 64.2885C149.67 64.2595 162.787 64.6325 175.912 64.5495C180.929 64.5175 186.484 62.3555 187.751 68.1955C189.181 74.7845 187.538 82.1215 187.091 88.7435C186.793 93.1635 186.899 97.4925 187.098 101.91C187.226 104.739 186.893 107.927 187.394 110.704C187.875 113.378 189.797 114.981 191.559 111.986C192.612 110.196 192.088 105.777 192.158 103.704C192.252 100.912 192.164 98.1195 192.164 95.3265C192.163 88.5095 193.125 81.7205 192.998 74.9045C192.916 70.5095 192.683 62.5425 187.14 61.4865C181.036 60.3235 173.533 61.4925 167.286 61.4215C151.808 61.2445 136.356 60.7265 120.873 60.8475Z" fill="#0090BD"/>
<path opacity="0.5" fill-rule="evenodd" clip-rule="evenodd" d="M83.6376 103.484C78.5416 103.484 73.4456 103.515 68.3506 103.599C63.9806 103.671 57.1106 102.762 53.0431 104.325C50.2588 105.395 49.5192 108.503 53.0431 109.331C56.8866 110.234 62.6786 108.758 66.6996 108.687C86.8636 108.331 107.222 107.866 127.358 109.142C146.226 110.336 165.457 111.495 184.352 110.234C185.942 110.128 194.05 109.805 190.35 106.766C188.192 104.992 179.443 106.158 176.638 106.073C166.744 105.775 156.84 105.709 146.949 105.334C137.186 104.963 127.468 103.866 117.702 103.594C106.357 103.278 94.9866 103.484 83.6376 103.484Z" fill="#0090BD"/>
<path opacity="0.5" fill-rule="evenodd" clip-rule="evenodd" d="M78.5386 74.5025C86.4806 74.8495 94.3386 86.3675 86.3026 91.9335C78.7636 97.1575 64.6356 91.4325 68.8276 81.3045C68.2246 82.7685 69.5896 79.7135 69.6066 79.6935C70.4036 78.7545 71.8346 77.7145 72.8176 76.9745C73.9416 76.1265 75.1126 75.1945 76.4686 74.7695C77.3586 74.4905 77.2186 75.5395 78.5386 74.5025ZM74.6706 70.3485C70.9536 71.7995 69.2576 73.4365 66.7026 76.3995C64.9356 78.4495 62.6816 79.5285 62.7016 82.2985C62.7066 82.9115 63.4936 83.5855 63.6306 84.1765C63.8186 84.9925 63.6006 86.0385 63.7496 86.9055C65.2876 95.8555 75.9646 98.8725 83.7806 97.1825C90.5886 95.7105 95.6806 89.1755 94.1036 82.0685C92.5156 74.9145 81.9076 67.5175 74.6706 70.3485Z" fill="#0090BD"/>
<path opacity="0.5" fill-rule="evenodd" clip-rule="evenodd" d="M71.3596 82.8415C71.3596 86.0605 76.4456 86.0605 76.4456 82.8415C76.4456 79.6585 71.3596 79.5215 71.3596 82.8415Z" fill="#0090BD"/>
<path opacity="0.5" fill-rule="evenodd" clip-rule="evenodd" d="M77.7227 82.1895C77.7227 84.7475 81.7627 84.7475 81.7627 82.1895C81.7627 79.6605 77.7227 79.5525 77.7227 82.1895Z" fill="#0090BD"/>
<path opacity="0.5" fill-rule="evenodd" clip-rule="evenodd" d="M78.9737 87.4655C77.6797 87.9625 76.0377 86.9315 74.9757 87.6105C73.0947 88.8155 74.9807 89.9045 75.9887 90.3885C80.5287 92.5675 81.3367 86.5595 78.9737 87.4655Z" fill="#0090BD"/>
<path opacity="0.5" fill-rule="evenodd" clip-rule="evenodd" d="M148.314 80.3306C148.178 80.3876 147.697 80.5916 148.314 80.3306V80.3306ZM128.541 77.4406C125.143 78.2076 122.274 81.3815 118.582 80.9565C115.753 80.6315 113.837 77.9005 111.044 77.5045C107.471 76.9965 97.7457 85.1465 102.859 86.5455C105.842 87.3615 107.497 81.9105 110.132 81.6205C112.217 81.3915 115.052 83.9485 117.212 84.3125C121.242 84.9915 124.01 82.7716 127.547 81.3396C131.392 79.7846 133.579 81.1856 136.922 82.9146C139.561 84.2786 142.047 85.1676 145.066 84.6046C147.9 84.0766 151.46 81.1615 154.313 81.4605C157.107 81.7535 159.101 84.6696 161.975 84.9406C163.16 85.0516 164.924 85.4555 164.725 83.6265C164.565 82.1635 162.932 82.4115 161.91 81.8785C159.282 80.5105 156.824 78.0866 153.653 78.2936C151.267 78.4496 149.095 80.1256 146.897 80.9276C139.697 83.5536 135.649 75.8466 128.541 77.4406Z" fill="#0090BD"/>
<path opacity="0.5" fill-rule="evenodd" clip-rule="evenodd" d="M134.557 123.81C120.668 123.938 106.732 124.144 92.8827 125.257C89.5987 125.521 56.0717 128.687 56.1357 128.915C56.2527 129.336 60.5657 129.981 60.5387 130.08C60.2477 129.36 59.5837 129.061 58.5457 129.186C90.3437 129.186 122.04 126.339 153.88 126.851C161.88 126.979 169.91 126.926 177.905 127.178C179.901 127.241 184.846 128.671 186.413 127.77C190.527 125.405 183.054 125.132 181.816 125.033C166.147 123.779 150.269 123.653 134.557 123.81Z" fill="#5C63AB"/>
<path opacity="0.5" fill-rule="evenodd" clip-rule="evenodd" d="M52.0193 130.558C49.9431 132.64 51.8549 140.129 51.9367 142.944C52.055 147.013 51.9575 151.111 52.3146 155.17C52.7222 159.806 53.3546 164.746 54.571 169.244C55.241 171.722 57.5926 175.66 58.5246 171.158C59.1896 167.941 58.1796 163.675 57.8276 160.399C57.3576 156.016 57.2436 151.691 57.2266 147.286C57.2106 143.449 57.1366 139.595 56.8216 135.77C56.6586 133.784 55.6597 126.937 52.0193 130.558Z" fill="#5C63AB"/>
<path opacity="0.5" fill-rule="evenodd" clip-rule="evenodd" d="M104.258 168.697C94.4017 168.866 84.5246 169.099 74.6856 169.714C70.6526 169.967 66.6226 170.343 62.6046 170.769C61.7856 170.856 52.7102 171.223 56.7656 174.572C58.5956 176.085 66.1247 173.995 68.6107 173.777C72.7937 173.41 76.9746 173.172 81.1686 172.995C90.8876 172.582 100.636 172.217 110.364 172.385C128.131 172.694 145.783 172.832 163.554 172.436C166.079 172.38 185.86 172.907 186.532 170.281C187.073 168.164 179.999 169.136 178.709 169.174C173.978 169.315 169.246 169.283 164.512 169.258C144.461 169.156 124.294 168.358 104.258 168.697Z" fill="#5C63AB"/>
<path opacity="0.5" fill-rule="evenodd" clip-rule="evenodd" d="M183.183 127.046C183.496 135.821 184.99 144.586 185.468 153.388C185.686 157.411 185.943 161.431 186.14 165.456C186.204 166.754 185.681 169.883 187.216 170.63C189.322 171.654 189.606 169.59 190 168.194C191.139 164.161 190.369 158.922 190.265 154.78C190.165 150.769 190.158 146.75 189.862 142.746C189.559 138.655 188.736 134.642 188.354 130.566C188.192 128.842 188.757 125.973 186.927 124.903C185.345 123.978 183.115 125.144 183.183 127.046Z" fill="#5C63AB"/>
<path opacity="0.5" fill-rule="evenodd" clip-rule="evenodd" d="M86.3086 141.643C86.3456 141.672 86.3826 141.701 86.4196 141.73C86.3826 141.701 86.3456 141.672 86.3086 141.643ZM77.9326 139.043C81.0556 139.935 83.6207 139.603 86.6047 141.876C89.0777 143.761 91.6146 146.52 92.4346 149.568C94.3296 156.61 87.9046 160.47 81.8816 160.546C75.7116 160.623 66.5786 159.192 66.8946 151.284C67.1376 145.208 71.5736 139.279 77.9326 139.043ZM78.1526 135.063C70.0536 135.466 63.5206 144.562 63.5906 152.217C63.6756 161.496 74.1886 163.887 81.6576 163.951C90.0866 164.023 98.4917 158.203 96.2337 148.724C94.4237 141.129 85.9406 134.658 78.1526 135.063Z" fill="#5C63AB"/>
<path opacity="0.5" fill-rule="evenodd" clip-rule="evenodd" d="M70.0056 147.521C70.0056 150.109 74.0936 150.109 74.0936 147.521C74.0936 144.964 70.0056 144.854 70.0056 147.521Z" fill="#5C63AB"/>
<path opacity="0.5" fill-rule="evenodd" clip-rule="evenodd" d="M78.5806 146.386C78.5806 148.994 82.7006 148.994 82.7006 146.386C82.7006 143.808 78.5806 143.697 78.5806 146.386Z" fill="#5C63AB"/>
<path opacity="0.5" fill-rule="evenodd" clip-rule="evenodd" d="M73.8536 152.288C71.1926 154.944 80.5406 159.6 82.7446 155.905C84.5556 152.869 80.6126 153.877 79.2156 153.713C77.6966 153.534 75.0936 151.051 73.8536 152.288Z" fill="#5C63AB"/>
<path opacity="0.5" fill-rule="evenodd" clip-rule="evenodd" d="M148.588 146.439C148.332 146.547 148.332 146.547 148.588 146.439V146.439ZM113.486 142.115C110.792 142.62 101.95 145.603 101.831 148.799C101.612 154.609 110.272 148.658 112.152 147.894C117.26 145.818 119.944 150.053 125.076 150.276C129.532 150.47 133.63 146.656 137.828 147.107C142.227 147.58 144.342 152.259 149.42 149.775C152.107 148.461 152.039 146.434 149.023 146.243C147.201 146.128 145.948 146.881 144.048 146.097C141.076 144.871 139.879 142.875 136.323 143.192C133.639 143.432 131.214 144.944 128.594 145.53C122.596 146.87 119.269 141.031 113.486 142.115Z" fill="#5C63AB"/>
<path opacity="0.5" fill-rule="evenodd" clip-rule="evenodd" d="M169.282 148.962C169.096 149.04 169.096 149.04 169.282 148.962V148.962ZM169.961 146.543C169.991 146.556 170.194 146.838 169.961 146.543V146.543ZM166.873 144.696C166.757 144.785 166.757 144.785 166.873 144.696V144.696ZM166.94 144.673C167.539 145.032 172.354 148.324 168.857 149.1C167.081 149.493 165.612 145.921 166.94 144.673ZM165.346 141.026C157.633 144.543 165.933 157.128 171.986 152.014C174.533 149.863 174.868 145.514 172.39 143.272C170.906 141.929 167.361 140.105 165.346 141.026Z" fill="#5C63AB"/>
<path opacity="0.5" fill-rule="evenodd" clip-rule="evenodd" d="M92.9407 190.62C83.3157 190.623 73.6066 190.421 63.9946 190.991C62.3776 191.087 56.2157 190.779 55.3821 192.47C53.8574 195.563 60.1976 194.028 61.1186 193.935C80.2566 192.019 100.248 193.122 119.449 193.668C135.153 194.114 150.772 194.391 166.457 195.201C170.58 195.413 174.699 195.648 178.819 195.897C180.162 195.978 183.542 196.867 183.825 194.722C184.087 192.737 179.871 193.186 178.818 193.131C170.443 192.69 162.074 192.228 153.701 191.757C133.549 190.621 113.125 190.616 92.9407 190.62Z" fill="#0090BD"/>
<path opacity="0.5" fill-rule="evenodd" clip-rule="evenodd" d="M55.0731 194.058C53.2754 195.845 54.1181 202.669 54.0679 204.924C53.9802 208.869 53.794 212.811 53.7104 216.754C53.6236 220.876 53.7443 225.017 53.9881 229.133C54.0902 230.861 55.5086 239.213 57.7416 234.433C58.7396 232.297 57.7176 226.348 57.7326 223.928C57.7606 219.524 57.9976 215.138 58.2166 210.739C58.4056 206.958 58.4126 203.173 58.5776 199.391C58.6296 198.185 58.7726 190.347 55.0731 194.058Z" fill="#0090BD"/>
<path opacity="0.5" fill-rule="evenodd" clip-rule="evenodd" d="M185.444 229.294C176.077 230.254 166.56 229.801 157.158 230.51C149.055 231.121 140.959 231.371 132.835 231.543C114.439 231.931 96.0107 232.31 77.6677 233.843C73.4877 234.192 69.3117 234.563 65.1207 234.75C63.0247 234.843 54.228 233.889 53.5729 236.099C52.4572 239.863 61.8637 238.372 63.8927 238.313C68.3547 238.185 72.7957 237.863 77.2447 237.524C95.9487 236.099 114.723 235.672 133.467 235.08C143.66 234.758 153.783 234.012 163.954 233.334C169.024 232.996 174.107 232.986 179.176 232.658C180.503 232.572 185.198 232.741 186.152 231.674C186.807 230.941 186.973 229.152 185.444 229.294Z" fill="#0090BD"/>
<path opacity="0.5" fill-rule="evenodd" clip-rule="evenodd" d="M182.269 194.698C182.59 203.681 183.098 212.656 183.401 221.639C183.492 224.34 182.676 229.181 184.18 231.563C186.599 235.394 188.487 231.339 188.93 228.952C190.328 221.419 188.825 213.099 188.434 205.519C188.286 202.628 189.184 196.191 187.786 193.603C186.455 191.138 182.15 191.385 182.269 194.698Z" fill="#0090BD"/>
<path opacity="0.5" fill-rule="evenodd" clip-rule="evenodd" d="M166.544 207.493C170.132 208.465 170.656 216.266 166.607 216.844C160.58 217.703 163.216 209.101 166.544 207.493ZM165.538 204.39C164.444 204.356 161.917 204.054 161.242 204.945C160.678 205.691 161.248 207.264 161.182 207.974C160.945 210.512 158.881 211.978 159.804 214.975C160.43 217.009 162.107 218.92 164.151 219.626C174.936 223.354 174.805 202.515 165.538 204.39Z" fill="#0090BD"/>
<path opacity="0.5" fill-rule="evenodd" clip-rule="evenodd" d="M68.1656 205.79C68.1386 205.824 68.1116 205.858 68.0856 205.893C68.1116 205.858 68.1386 205.824 68.1656 205.79ZM76.6366 201.283C76.5946 200.922 76.5516 200.561 76.5096 200.2C82.3576 202.96 87.0106 208.094 85.0686 214.986C83.5876 220.244 78.2346 222.11 73.2476 220.812C67.7276 219.374 65.0896 214.823 66.5776 209.236C67.2646 206.658 69.3736 203.194 72.0986 202.365C73.3676 201.979 76.1736 202.964 76.6366 201.283ZM73.2166 199.1C71.7376 199.2 70.2976 199.815 69.0906 200.658C70.2206 199.702 71.7266 199.134 73.2166 199.1ZM73.2596 195.704C69.6056 195.816 67.2106 198.027 65.0436 200.683C64.3636 201.517 62.0636 203.729 62.3486 204.852C62.5736 205.741 63.1626 207.039 64.4036 206.049C57.9056 218.999 74.6917 230.044 84.9387 221.038C94.5027 212.634 85.0136 195.31 73.2596 195.704Z" fill="#0090BD"/>
<path opacity="0.5" fill-rule="evenodd" clip-rule="evenodd" d="M69.9396 207.733C69.9396 209.458 72.6166 209.458 72.6166 207.733C72.6166 206.009 69.9396 206.009 69.9396 207.733Z" fill="#0090BD"/>
<path opacity="0.5" fill-rule="evenodd" clip-rule="evenodd" d="M74.5076 208.028C74.5076 209.78 77.2276 209.78 77.2276 208.028C77.2276 206.275 74.5076 206.275 74.5076 208.028Z" fill="#0090BD"/>
<path opacity="0.5" fill-rule="evenodd" clip-rule="evenodd" d="M76.5806 214.183C75.3086 214.286 70.6496 213.854 69.8326 214.968C68.4656 216.831 70.6466 216.896 71.7176 217.097C72.6826 217.278 76.8766 217.176 77.4676 216.319C77.9896 215.562 77.8676 214.073 76.5806 214.183Z" fill="#0090BD"/>
<path opacity="0.5" fill-rule="evenodd" clip-rule="evenodd" d="M132.705 209.352C132.486 209.442 132.486 209.442 132.705 209.352V209.352ZM115.104 208.065C112.236 208.276 109.808 209.925 107.066 210.583C104.14 211.286 102.873 209.994 100.212 209.148C97.4436 208.268 95.4746 208.615 93.2496 210.506C91.9896 211.577 89.2236 214.043 90.0116 215.945C91.8156 220.301 95.8996 213.215 97.8206 212.885C100.817 212.371 103.483 214.991 106.939 214.241C110.07 213.563 112.848 211.413 116.118 211.39C118.853 211.37 121.43 212.867 124.13 213.229C128.252 213.782 130.958 212.318 134.768 211.232C138.072 210.29 140.388 211.532 143.496 212.577C144.916 213.054 149.655 214.79 148.783 211.642C148.536 210.753 142.291 209.163 141.323 208.857C137.909 207.779 135.747 208.199 132.494 209.439C129.782 210.474 127.5 210.978 124.592 210.408C121.388 209.781 118.474 207.809 115.104 208.065Z" fill="#0090BD"/>
</g>
<g opacity="0.5">
<path opacity="0.5" fill-rule="evenodd" clip-rule="evenodd" d="M247.039 63.7105C247.502 53.7535 248.138 43.8115 248.473 33.8488C248.64 28.9121 248.77 23.9749 248.896 19.0372C248.923 17.9378 248.952 16.8388 248.977 15.7393C249.058 12.004 248.615 11.6985 252.374 11.3669C269.143 9.88672 285.979 9.39612 302.768 8.05692C323.017 6.44182 343.371 5.32652 363.677 4.82662C372.7 4.60412 381.762 4.14312 390.787 4.42372C392.786 4.48582 396.711 3.96552 397.499 5.51992C397.839 6.19142 397.125 8.50212 397.035 9.27692C396.752 11.6975 396.488 14.1265 396.325 16.5591C395.365 30.9065 395.937 45.6155 398.715 59.7455C392.198 56.0705 383.964 52.9095 376.368 53.5365C368.624 54.1765 362.831 58.6505 356.632 62.7685C353.126 65.0985 351.945 65.7105 348.447 63.4545C345.432 61.5095 342.58 59.2865 339.736 57.1035C335.347 53.7355 331.205 50.0845 326.949 46.5535C319.124 40.0615 308.342 30.8207 297.534 33.5414C289.812 35.4853 282.682 39.7295 275.98 43.8825C266.022 50.0535 257.009 57.6105 247.039 63.7105ZM381.243 0.00211722C342.77 0.00211722 304.585 3.73182 266.22 5.74942C262.213 5.96002 258.22 6.27022 254.228 6.65552C251.567 6.91242 245.06 5.83382 243.316 8.10742C242.152 9.62432 243.152 9.85192 243.316 11.2932C243.522 13.1095 243.4 15.2617 243.347 17.1842C243.219 21.8168 243.084 26.4488 242.979 31.0818C242.582 48.5915 242.333 66.0985 243.042 83.6035C243.197 87.4215 244.588 92.7075 243.827 96.4175C243.276 99.1035 241.434 100.738 245.682 101.234C249.862 101.723 254.973 100.48 259.157 100.082C263.365 99.6815 267.572 99.2465 271.785 98.8995C290.102 97.3905 308.597 97.6185 326.963 97.1165C345.493 96.6105 364.031 96.5785 382.568 96.5675C390.324 96.5635 399.187 96.9995 406.755 94.8655C409.417 94.1135 409.848 93.7435 409.191 91.1025C409.067 90.6005 408.263 90.4155 408.027 89.5095C407.706 88.2765 407.871 86.7775 407.796 85.4945C407.551 81.3025 407.465 77.1025 407.268 72.9085C406.938 65.8995 405.73 59.0975 404.836 52.1595C403.805 44.1475 403.858 36.0115 403.837 27.9466C403.825 23.4732 403.94 19.0145 404.299 14.5536C404.53 11.6924 405.939 7.42072 405.224 4.75242C404.868 3.42392 404.286 2.37032 402.903 1.79862C402.027 1.43592 401.29 1.71972 400.424 1.62792C399.397 1.51892 398.756 1.37472 397.526 1.09602C392.253 -0.0989802 386.615 0.00211722 381.243 0.00211722Z" fill="#5C63AB"/>
<path opacity="0.5" fill-rule="evenodd" clip-rule="evenodd" d="M359.951 19.0509C359.948 21.8392 359.513 25.9538 360.799 28.5794C362.429 31.9098 364.469 30.8687 365.009 27.7391C365.319 25.9459 365.311 20.6391 364.735 19.0509C363.92 16.8028 359.951 15.2716 359.951 19.0509Z" fill="#0090BD"/>
<path opacity="0.5" fill-rule="evenodd" clip-rule="evenodd" d="M364.63 20.1276C362.012 20.2199 354.388 19.5915 352.617 21.6964C349.579 25.3064 354.868 25.9459 357.139 25.7437C359.767 25.51 367.887 26.0803 369.647 23.9732C372.591 20.448 366.688 20.0525 364.63 20.1276Z" fill="#0090BD"/>
<path opacity="0.5" fill-rule="evenodd" clip-rule="evenodd" d="M263.047 113.278C274.555 115.277 270.975 132.824 260.086 128.759C256.291 127.343 250.701 123.251 252.798 118.43C254.364 114.828 259.47 112.935 263.047 113.278ZM258.282 107.823C250.798 109.083 245.681 117.182 248.248 124.247C250.723 131.062 260.112 136.053 267.037 133.604C273.647 131.265 276.945 122.47 274.717 116.036C272.388 109.314 264.802 106.725 258.282 107.823Z" fill="#0090BD"/>
<path opacity="0.5" fill-rule="evenodd" clip-rule="evenodd" d="M328.28 115.331C325.415 115.569 322.939 117.575 320.056 117.93C317.36 118.262 315.126 117.339 312.602 116.602C309.551 115.711 306.753 115.32 303.635 116.111C301.253 116.716 298.903 118.337 296.428 118.533C291.558 118.918 285.898 113.361 282.096 119.646C280.273 122.658 282.92 124.599 285.646 123.194C288.488 121.729 287.093 121.205 290.619 122.07C293.56 122.791 295.938 123.183 298.884 122.172C301.553 121.257 303.896 119.582 306.797 119.393C309.638 119.209 312.109 120.503 314.824 121.061C318.163 121.748 321.117 121.228 324.281 120.182C327.29 119.186 328.491 118.642 331.528 119.53C333.45 120.092 337.651 121.879 339.522 120.439C342.758 117.95 338.426 117.586 336.72 117.232C333.973 116.663 331.131 115.097 328.28 115.331Z" fill="#0090BD"/>
<path opacity="0.5" fill-rule="evenodd" clip-rule="evenodd" d="M393.848 113.658C393.871 113.676 393.894 113.694 393.916 113.711C393.894 113.694 393.87 113.676 393.848 113.658ZM391.035 113.07C395.218 113.339 399.741 120.959 394.199 121.23C390.298 121.42 385.933 114.748 391.035 113.07ZM390.448 106.835C377.222 110.528 383.268 129.176 396.026 127.022C401.821 126.043 403.785 119.33 401.869 114.36C401.046 112.226 399.442 110.426 397.525 109.198C396.111 108.291 392.065 106.385 390.448 106.835Z" fill="#0090BD"/>
<path opacity="0.5" fill-rule="evenodd" clip-rule="evenodd" d="M328.74 145.764C340.379 145.365 352.019 144.965 363.67 144.857C369.984 144.799 376.264 144.909 382.569 145.271C385.365 145.431 388.16 145.586 390.958 145.704C391.441 145.725 392.108 145.692 392.844 145.656C394.576 145.571 396.691 145.467 397.686 145.993C403.252 148.937 391.912 149.26 390.534 149.237C387.447 149.185 384.363 149.032 381.279 148.88C378.584 148.747 375.889 148.614 373.191 148.547C355.884 148.122 338.471 148.9 321.135 149.674C317.161 149.851 313.191 150.029 309.227 150.191C305.018 150.364 300.811 150.476 296.603 150.587C290.589 150.747 284.575 150.907 278.561 151.245C276.264 151.374 273.968 151.51 271.672 151.647C268.383 151.843 265.094 152.039 261.803 152.212C259.227 152.348 256.65 152.48 254.07 152.545C253.606 152.556 253.001 152.621 252.34 152.691C250.741 152.862 248.817 153.067 247.777 152.642C246.527 152.131 245.515 151.416 246.203 149.9C246.784 148.619 248.897 148.773 250.438 148.885C250.859 148.916 251.237 148.943 251.529 148.937C256.453 148.842 261.366 148.565 266.281 148.264C268.079 148.154 269.876 148.041 271.673 147.928H271.674C281.031 147.34 290.379 146.752 299.759 146.592C309.423 146.427 319.081 146.095 328.74 145.764ZM389.529 222.367L392.875 222.327C394.603 222.477 395.376 224.291 394.266 225.685C393.417 226.753 390.148 226.801 388.017 226.832C387.426 226.841 386.923 226.849 386.583 226.876C381.02 227.323 375.468 227.524 369.888 227.578C358.138 227.689 346.432 228.193 334.701 228.862C322.693 229.547 310.675 229.804 298.656 230.062H298.655C289.813 230.251 280.97 230.441 272.131 230.8C267.069 231.006 262.006 231.16 256.942 231.293C256.398 231.307 255.674 231.385 254.855 231.473C251.656 231.819 247.008 232.321 245.955 229.78C245.02 227.526 246.319 226.488 248.219 226.016C247.919 224.681 247.975 222.805 248.006 221.73C248.016 221.407 248.023 221.156 248.018 221.014C247.971 219.667 247.937 218.319 247.904 216.971C247.866 215.444 247.829 213.917 247.77 212.39C247.716 211.005 247.667 209.618 247.617 208.23C247.421 202.758 247.225 197.272 246.803 191.822C246.609 189.306 246.301 186.82 245.993 184.338C245.502 180.375 245.011 176.422 244.989 172.377C244.985 171.649 244.948 170.739 244.907 169.712C244.697 164.46 244.365 156.156 247.625 153.627C253.374 150.272 252.237 159.955 251.73 164.276C251.647 164.99 251.58 165.557 251.564 165.896C251.234 173.081 251.682 179.951 252.405 187.091C252.894 191.913 252.608 196.719 252.323 201.533C252.221 203.252 252.119 204.972 252.052 206.695C252.019 207.547 251.989 208.399 251.96 209.25C251.869 211.871 251.779 214.49 251.582 217.108C251.56 217.391 251.553 217.934 251.544 218.628C251.518 220.585 251.477 223.743 251.058 225.66C251.95 225.621 252.815 225.631 253.531 225.639C253.986 225.644 254.381 225.648 254.683 225.639C256.055 225.597 257.428 225.557 258.8 225.517C262.854 225.398 266.908 225.279 270.961 225.127C280.529 224.767 290.1 224.647 299.671 224.527C310.975 224.385 322.28 224.243 333.579 223.706C352.201 222.821 370.887 222.594 389.529 222.367ZM392.983 152.119C392.973 164.428 393.925 176.399 395.037 188.659C395.725 196.242 396.276 203.854 396.715 211.456C396.735 211.808 396.732 212.395 396.728 213.131V213.132C396.706 217.336 396.658 226.394 400.813 224.227C403.95 222.591 402.744 213.104 402.077 207.854C401.931 206.703 401.81 205.755 401.767 205.139C401.676 203.826 401.586 202.513 401.496 201.201C401.078 195.107 400.661 189.017 400.111 182.93L399.995 181.646C399.359 174.616 398.723 167.59 398.61 160.526C398.601 159.942 398.657 159.129 398.72 158.209C398.904 155.55 399.149 152.009 398.044 150.597C396.49 148.61 392.986 149.197 392.983 152.119Z" fill="#5C63AB"/>
<path opacity="0.5" fill-rule="evenodd" clip-rule="evenodd" d="M329.272 182.294C344.138 175.568 359.178 168.764 374.637 163.919C375.755 163.569 376.461 164.721 376.208 165.688C375.946 166.684 373.528 167.534 371.924 168.098C371.444 168.267 371.037 168.41 370.783 168.523C368.624 169.488 366.459 170.44 364.294 171.393C362.077 172.368 359.86 173.344 357.648 174.332C353.051 176.386 348.449 178.432 343.847 180.477C338.918 182.667 333.99 184.857 329.066 187.059C328.88 187.142 328.693 187.226 328.507 187.309C335.201 189.688 341.857 192.173 348.484 194.734C350.748 195.608 353.005 196.502 355.262 197.395C356.539 197.9 357.816 198.405 359.095 198.907C359.511 199.07 360.236 199.292 361.107 199.558C363.945 200.424 368.335 201.765 368.66 203.119C369.188 205.325 363.126 203.191 360.839 202.386C360.536 202.279 360.299 202.196 360.153 202.149C356.778 201.07 353.444 199.869 350.112 198.668L349.65 198.501C347.009 197.55 344.372 196.588 341.735 195.626C336.583 193.748 331.432 191.869 326.252 190.067C325.52 189.812 324.787 189.558 324.054 189.305C315.742 193.039 307.446 196.807 299.178 200.636C294.744 202.69 290.334 204.791 285.937 206.92C284.977 207.385 283.788 208.104 282.497 208.885C279.403 210.755 275.719 212.981 273.184 212.925C271.826 212.895 270.91 212.605 270.768 210.958C270.622 209.258 272.803 208.367 274.371 207.726C274.746 207.572 275.086 207.432 275.351 207.3C280.051 204.949 284.78 202.659 289.523 200.397C298.943 195.904 308.451 191.59 317.992 187.362C318.047 187.338 318.102 187.314 318.157 187.289C312.865 185.499 307.559 183.75 302.24 182.039C301.709 181.868 300.621 181.567 299.19 181.17C292.429 179.298 278.027 175.309 278.668 172.979C279.403 170.314 292.905 175.185 298.883 177.342C300.004 177.746 300.86 178.055 301.318 178.201C308.465 180.478 315.592 182.82 322.682 185.269C324.875 184.284 327.071 183.29 329.272 182.294Z" fill="#0090BD"/>
<path opacity="0.5" fill-rule="evenodd" clip-rule="evenodd" d="M265.572 240.831C269.923 241.594 272.993 245.769 272.516 250.14C271.87 256.047 265.983 258.754 260.544 257.984C254.373 257.109 253.075 251.892 256.065 246.874C256.727 245.763 257.488 244.433 258.692 243.848C259.519 243.446 260.573 243.801 261.239 243.477C263.575 242.341 262.17 240.529 265.572 240.831ZM263.59 236.973C258.28 237.651 248.469 243.796 248.965 249.944C249.396 250.657 250.044 250.948 250.909 250.819C250.701 252.151 250.769 253.468 251.113 254.772C251.617 256.464 252.624 257.851 253.972 258.952C256.749 261.222 260.545 261.779 264.003 261.381C270.46 260.639 275.548 256.226 275.911 249.51C276.265 242.955 270.543 236.095 263.59 236.973Z" fill="#0090BD"/>
<path opacity="0.5" fill-rule="evenodd" clip-rule="evenodd" d="M289.31 244.974C286.927 246.236 283.158 248.176 281.761 250.574C280.285 253.107 281.813 255.878 284.923 254.68C287.392 253.729 288.962 250.707 291.596 249.738C293.92 248.883 294.856 249.319 297.313 250.17C299.844 251.047 302.056 251.895 304.792 251.679C308.231 251.409 311.209 249.415 314.575 248.962C317.409 248.58 319.746 249.682 322.46 250.121C325.609 250.63 327.668 249.438 330.614 248.817C332.618 248.395 336.15 250.113 337.612 249.47C340.898 248.025 337.421 246.259 335.602 245.675C332.537 244.692 330.651 245.559 327.736 246.375C324.571 247.26 323.204 246.594 320.178 245.781C314.057 244.137 309.328 248.114 303.526 247.391C298.155 246.721 294.94 241.992 289.31 244.974Z" fill="#0090BD"/>
<path opacity="0.5" fill-rule="evenodd" clip-rule="evenodd" d="M389.399 242.035C395.291 247.559 388.672 255.418 382.176 251.003C379.89 249.45 379.853 246.954 381.632 244.721C383.26 242.679 386.835 241.883 389.399 242.035ZM387.215 237.571C381.711 238.642 376.519 241.168 376.02 247.521C375.534 253.719 381.892 256.598 387.233 256.192C399.225 255.278 398.358 235.417 387.215 237.571Z" fill="#0090BD"/>
</g>
<path opacity="0.5" fill-rule="evenodd" clip-rule="evenodd" d="M517.603 31.7042C513.2 31.7893 502.327 33.3908 500.711 38.5995C499.484 42.5525 503.129 41.6845 505.082 40.2465C507.725 38.3005 510.042 37.1365 513.317 36.5445C525.79 34.2884 537.775 42.3795 550.129 43.4025C554.809 43.7905 560.456 44.0425 564.924 42.5275C568.106 41.4475 568.521 39.0945 564.89 38.7365C561.805 38.4315 558.391 39.3915 555.228 39.3645C542.139 39.2525 530.504 31.4581 517.603 31.7042Z" fill="#494949"/>
<g opacity="0.5">
<path opacity="0.5" fill-rule="evenodd" clip-rule="evenodd" d="M54.9727 279.061C46.5485 279.155 38.1284 279.466 29.7208 279.998C21.7255 280.505 13.0504 280.12 5.18525 281.67C2.95195 282.11 -0.0649472 284.145 2.90465 286.384C4.99195 287.958 12.6284 286.148 15.1209 285.995C24.2999 285.43 33.4836 284.755 42.6756 284.43C51.3776 284.122 60.0787 284.014 68.7857 283.927C70.1147 283.914 72.3207 283.488 73.6447 283.874C75.5467 284.428 75.0957 284.579 75.2377 286.993C75.4957 291.367 75.4247 295.757 75.3377 300.135C75.2537 304.372 75.0967 308.608 75.1127 312.847C75.1227 315.871 74.1567 321.88 75.6737 324.507C77.8577 328.287 80.1237 324.181 80.2867 321.669C80.5997 316.864 80.4597 312.001 80.4607 307.19C80.4617 302.675 80.4947 298.159 80.3357 293.646C80.2197 290.386 80.6857 284.695 78.9297 281.731C77.1407 278.712 72.8337 279.363 69.6917 279.219C64.7897 278.994 59.8787 279.01 54.9727 279.061Z" fill="#0090BD"/>
<path opacity="0.5" fill-rule="evenodd" clip-rule="evenodd" d="M1.37325 284.509C1.38255 292.994 0.401049 301.421 0.126049 309.896C-5.1111e-05 313.792 -0.255949 318.07 0.729751 321.895C1.72475 325.757 4.88485 326.594 5.24875 322.282C5.98595 313.552 5.80515 304.499 6.37915 295.699C6.58175 292.591 7.90035 286.897 6.66935 283.988C5.58535 281.425 1.36865 280.933 1.37325 284.509Z" fill="#0090BD"/>
<path opacity="0.5" fill-rule="evenodd" clip-rule="evenodd" d="M80.3696 321.907C65.7396 323.843 50.4451 323.137 35.7108 323.442C28.6417 323.588 21.5742 323.597 14.5042 323.671C12.0368 323.696 5.77075 322.758 3.63615 324.145C0.23815 326.353 3.92495 328.057 6.17455 328.106C20.1266 328.411 34.2342 327.77 48.1836 327.312C54.451 327.106 60.7386 327.006 66.9896 326.473C70.8376 326.145 75.0426 325.827 78.7796 324.793C79.5756 324.573 81.3096 324.619 81.4876 323.533C81.5976 322.861 81.3986 321.765 80.3696 321.907Z" fill="#0090BD"/>
<path opacity="0.5" fill-rule="evenodd" clip-rule="evenodd" d="M19.534 334.239C15.4679 334.263 3.21495 332.374 1.53095 336.339C-0.713947 341.627 8.04365 340.393 10.399 340.332C15.7484 340.195 21.0941 340.18 26.4449 340.183C31.6951 340.185 36.9448 340.151 42.1941 340.026C43.7148 339.99 47.2546 340.621 48.1295 338.79C48.7944 337.398 48.2691 336.3 47.0428 335.563C44.0922 333.79 36.4269 334.818 32.9724 334.659C28.4997 334.453 24.0122 334.239 19.534 334.239Z" fill="#0090BD"/>
<path opacity="0.5" fill-rule="evenodd" clip-rule="evenodd" d="M69.0007 335.218C66.6767 335.356 61.9767 334.398 59.8947 335.462C57.5287 336.671 58.3627 338.563 60.4047 339.395C61.8197 339.971 67.6227 339.669 69.0007 339.002C70.4367 338.306 72.0607 335.03 69.0007 335.218Z" fill="#0090BD"/>
<path opacity="0.5" fill-rule="evenodd" clip-rule="evenodd" d="M94.4767 285.342C91.9947 286.023 92.7477 300.113 92.6837 302.346C92.5087 308.466 91.8207 316.163 93.8537 322.057C95.1507 325.814 97.6417 325.304 97.2167 321.349C96.8447 317.877 96.2047 314.445 95.9277 310.951C95.3027 303.044 94.4507 294.61 95.0417 286.696C95.2937 287.156 97.6477 291.421 98.2017 291.102C98.0347 291.202 95.4867 285.076 94.4767 285.342Z" fill="#0090BD"/>
<path opacity="0.5" fill-rule="evenodd" clip-rule="evenodd" d="M122.394 280.152C117.371 280.227 112.349 280.316 107.328 280.455C103.335 280.566 97.0617 279.91 93.4007 281.59C89.0407 283.589 91.1087 288.044 95.2037 288.138C98.8267 288.222 102.69 287.405 106.345 287.28C116.218 286.942 126.109 286.87 135.986 286.785C144.92 286.708 154.233 287.661 163.088 286.319C164.401 297.982 160.849 309.694 162.057 321.491C162.244 323.322 162.16 325.909 164.492 326.326C167.435 326.853 167.556 323.938 167.667 321.851C167.986 315.892 167.813 309.928 168.25 303.961C168.654 298.431 169.45 292.78 168.777 287.241C167.95 280.426 164.684 280.972 158.911 280.689C146.718 280.091 134.601 279.973 122.394 280.152Z" fill="#0090BD"/>
<path opacity="0.5" fill-rule="evenodd" clip-rule="evenodd" d="M105.562 321.565C103.002 321.63 98.7516 320.841 97.1116 323.295C95.4056 325.849 97.4297 328.076 99.9107 328.6C102.848 329.22 106.677 328.37 109.725 328.361C112.899 328.351 116.074 328.387 119.248 328.399C132.856 328.452 146.522 328.658 160.121 328.096C162.02 328.017 167.41 328.654 168.724 326.832C169.891 325.217 169.075 323.768 167.538 322.945C165.018 321.594 159.842 322.108 157.039 322.001C153.577 321.869 150.11 321.826 146.647 321.772C132.975 321.561 119.232 321.227 105.562 321.565Z" fill="#0090BD"/>
<path opacity="0.5" fill-rule="evenodd" clip-rule="evenodd" d="M117.073 333.369C111.981 333.456 106.547 333.233 101.505 334.005C97.0716 334.684 96.5256 338.97 101.298 339.471C105.684 339.932 111.001 339.071 115.408 338.788C116.973 338.687 118.793 338.83 119.543 337.1C120.326 335.292 118.829 333.558 117.073 333.369Z" fill="#0090BD"/>
<path opacity="0.5" fill-rule="evenodd" clip-rule="evenodd" d="M155.572 333.819C152.854 333.887 144.915 332.718 143.569 335.823C141.327 340.991 152.075 339.028 154.137 338.952C156.736 338.856 166.864 340.374 166.866 336.237C166.868 332.18 158.061 333.758 155.572 333.819Z" fill="#0090BD"/>
<path opacity="0.5" fill-rule="evenodd" clip-rule="evenodd" d="M0.933752 359.503C0.940252 368.905 0.35515 378.396 1.21285 387.775C1.56755 391.654 1.50675 399.085 3.75355 402.373C5.34845 404.707 7.56045 404.544 8.43165 401.741C9.01395 399.867 8.08255 396.12 7.97865 394.115C7.87855 392.192 7.76165 390.269 7.67265 388.344C7.44405 383.387 7.46215 378.438 7.53035 373.478C7.58875 369.223 8.61295 363.594 7.64715 359.503C6.74675 355.69 0.933752 354.798 0.933752 359.503Z" fill="#5C63AB"/>
<path opacity="0.5" fill-rule="evenodd" clip-rule="evenodd" d="M95.4306 351.231C79.1176 351.64 62.7676 351.275 46.4693 352.082C38.4313 352.48 30.4249 353.355 22.4272 354.226C18.4979 354.655 14.5708 355.097 10.6484 355.58C9.46485 355.726 -0.370749 356.107 3.32865 359.847C4.94395 361.481 10.0842 359.775 12.1182 359.534C16.0563 359.069 20.0023 358.664 23.9459 358.247C31.4503 357.453 38.964 356.701 46.5004 356.284C64.2496 355.3 82.0727 355.595 99.8397 354.94C104.646 354.763 109.437 354.636 114.245 354.825C115.508 354.874 124.785 355.346 120.757 351.919C118.852 350.299 111.671 351.135 109.291 351.086C104.671 350.991 100.049 351.115 95.4306 351.231Z" fill="#5C63AB"/>
<path opacity="0.5" fill-rule="evenodd" clip-rule="evenodd" d="M117.669 367.072C117.589 362.728 117.508 358.384 117.31 354.043C117.102 349.472 123.329 348.78 125.175 352.48C126.505 355.144 126.271 359.676 126.07 363.561C125.99 365.126 125.914 366.587 125.949 367.777C126.028 370.505 126.229 373.327 126.432 376.185C126.944 383.379 127.473 390.81 126.128 397.601C125.474 400.901 122.691 402.635 120.838 400.837C120.835 400.84 120.833 400.844 120.83 400.848C120.133 401.875 117.964 401.873 116.366 401.871C115.926 401.871 115.529 401.87 115.219 401.891C110.842 402.189 106.546 402.691 102.207 403.341C93.5626 404.637 84.9936 405.433 76.2566 405.649C70.3276 405.796 64.3906 405.845 58.4526 405.895C47.0806 405.989 35.7032 406.083 24.3678 406.861C20.5461 407.124 16.7823 407.574 13.0231 408.293C12.7032 408.354 12.3478 408.433 11.9696 408.518C9.17455 409.139 5.12815 410.039 4.85165 406.133C4.52305 401.497 14.5711 400.889 19.7419 400.577C20.5313 400.529 21.2071 400.488 21.7149 400.441C37.4155 398.981 53.3624 399.207 69.1296 399.431C69.8936 399.441 70.6576 399.452 71.4206 399.463C72.6506 399.48 73.8806 399.5 75.1106 399.52C81.8616 399.632 88.6047 399.743 95.3527 399.33C98.4237 399.142 101.536 399.045 104.653 398.949C109.626 398.795 114.613 398.64 119.477 398.113C118.743 395.269 118.615 391.913 118.494 388.75C118.447 387.518 118.401 386.316 118.321 385.184C117.894 379.155 117.781 373.114 117.669 367.072Z" fill="#5C63AB"/>
<path opacity="0.5" fill-rule="evenodd" clip-rule="evenodd" d="M130.872 357.392C128.668 357.691 126.83 359.578 127.814 361.97C129.053 364.982 132.744 363.805 135.182 363.614C142.932 363.007 151.024 364.22 158.681 363.305C160.772 363.055 163.805 361.916 161.928 359.106C160.517 356.995 155.375 357.365 153.189 357.163C145.714 356.471 138.337 356.656 130.872 357.392Z" fill="#494949"/>
<path opacity="0.5" fill-rule="evenodd" clip-rule="evenodd" d="M143.952 370.533C140.947 370.735 133.95 370.576 132.683 373.996C130.411 380.131 139.31 377.969 142.02 377.62C145.167 377.215 152.587 378.3 154.263 375.248C157.26 369.79 146.588 370.351 143.952 370.533Z" fill="#494949"/>
<path opacity="0.5" fill-rule="evenodd" clip-rule="evenodd" d="M136.223 383.997C134.797 385.423 134.795 387.97 136.223 389.397C137.971 391.144 141.781 390.781 144.078 390.908C147.282 391.087 156.485 392.782 158.076 389.009C160.223 383.918 151.889 384.025 149.148 383.736C145.98 383.403 138.849 381.37 136.223 383.997Z" fill="#494949"/>
<path opacity="0.5" fill-rule="evenodd" clip-rule="evenodd" d="M23.901 296.858C23.901 302.331 32.449 302.331 32.449 296.858C32.449 291.414 23.901 291.331 23.901 296.858Z" fill="#0090BD"/>
<path opacity="0.5" fill-rule="evenodd" clip-rule="evenodd" d="M40.1147 296.92C40.1147 303.177 49.851 303.164 49.851 296.92C49.851 290.685 40.1147 290.621 40.1147 296.92Z" fill="#0090BD"/>
<path opacity="0.5" fill-rule="evenodd" clip-rule="evenodd" d="M30.3062 305.239C25.5734 306.546 29.9334 310.557 32.131 311.473C35.6236 312.929 40.3902 314.003 43.8837 311.819C45.2737 310.95 46.4022 309.796 45.3836 308.11C44.2982 306.314 42.8122 307.113 41.1598 307.278C39.0665 307.489 37.3747 307.456 35.3533 306.785C33.8446 306.284 31.9516 304.786 30.3062 305.239Z" fill="#0090BD"/>
<path opacity="0.5" fill-rule="evenodd" clip-rule="evenodd" d="M116.154 297.204C116.154 300.906 121.902 300.906 121.902 297.204C121.902 293.502 116.154 293.502 116.154 297.204Z" fill="#0090BD"/>
<path opacity="0.5" fill-rule="evenodd" clip-rule="evenodd" d="M128.866 297.761C128.866 301.874 135.252 301.875 135.252 297.761C135.252 293.648 128.866 293.648 128.866 297.761Z" fill="#0090BD"/>
<path opacity="0.5" fill-rule="evenodd" clip-rule="evenodd" d="M128.393 306.687C125.039 307.12 115.337 308.103 114.794 312.238C113.957 318.617 124.587 313.454 127.013 312.953C130.104 312.315 132.863 312.482 135.948 312.606C137.642 312.673 139.895 312.948 139.717 310.368C139.426 306.131 131.325 306.312 128.393 306.687Z" fill="#0090BD"/>
<path opacity="0.5" fill-rule="evenodd" clip-rule="evenodd" d="M44.0552 365.513C41.6239 366.162 38.4433 370.365 40.1161 372.938C42.859 377.157 44.0686 370.679 45.2166 370.055C47.3052 368.921 49.0009 373.067 51.1836 370.892C54.628 367.46 46.2236 364.933 44.0552 365.513Z" fill="#5C63AB"/>
<path opacity="0.5" fill-rule="evenodd" clip-rule="evenodd" d="M71.9136 362.395C69.0306 362.421 62.9437 366.503 62.5127 369.517C62.2567 371.308 63.4437 373.029 65.3747 373.053C68.0037 373.085 68.8387 369.667 71.1177 368.952C73.5757 368.181 73.2107 369.957 75.3337 370.877C76.8877 371.551 78.8306 371.269 79.3696 369.359C80.3886 365.756 74.8766 362.338 71.9136 362.395Z" fill="#5C63AB"/>
<path opacity="0.5" fill-rule="evenodd" clip-rule="evenodd" d="M49.8432 379.653C45.2314 382.355 52.8197 388.148 55.4504 388.873C59.4216 389.966 67.4146 387.925 68.3556 383.074C68.7306 381.143 67.5226 379.394 65.3916 379.74C63.6376 380.025 62.5126 382.226 60.8876 383.014C58.6936 384.077 56.7436 384.005 54.8801 382.404C53.3617 381.099 52.5485 378.075 49.8432 379.653Z" fill="#5C63AB"/>
<path opacity="0.5" fill-rule="evenodd" clip-rule="evenodd" d="M53.1858 419.584C49.0654 420.463 44.8771 419.873 40.7368 420.7C36.515 421.542 33.9918 423.137 30.0694 421.53C29.8849 421.452 29.7008 421.375 29.5168 421.297C26.4809 419.989 23.2991 419.602 20.1213 421.686C18.2408 422.919 12.5321 427.185 13.2201 429.788C14.7112 435.431 21.1347 426.582 22.7727 425.72C25.8962 424.075 28.0379 426.176 31.2536 426.769C35.1055 427.479 38.2048 425.444 41.8332 424.633C46.0769 423.685 50.8509 423.355 55.1683 422.847C56.8736 422.647 63.3347 423.996 63.9177 421.873C64.9197 418.227 54.8052 419.241 53.1858 419.584Z" fill="#494949"/>
<path opacity="0.5" fill-rule="evenodd" clip-rule="evenodd" d="M82.9126 430.949C83.1826 431.153 82.9666 430.989 82.9126 430.949V430.949ZM94.4526 419.364C97.9796 419.006 109.266 416.486 111.583 420.131C113.093 422.505 110.697 431.267 108.413 432.401C106.586 433.306 102.333 432.305 100.329 432.234C96.5997 432.103 92.8637 432.045 89.1387 431.812C87.8897 431.734 83.8707 431.964 82.8917 430.858C81.7357 429.553 81.7867 422.594 81.5147 420.868C84.7577 421.918 91.0616 419.708 94.4526 419.364ZM101.985 415.79C97.4676 415.986 92.9507 416.325 88.4667 416.931C85.9677 417.269 83.4347 418.167 81.1267 418.593C80.3827 418.73 79.1747 418.349 78.2627 418.79C75.5957 420.078 77.9306 428.788 78.5736 431.114C79.5616 434.689 82.0466 435.268 85.5296 435.604C90.1166 436.049 94.7977 435.909 99.3997 435.853C103.835 435.798 109.816 436.781 112.305 432.331C113.914 429.453 115.639 422.752 114.264 419.545C112.455 415.325 105.7 415.634 101.985 415.79Z" fill="#494949"/>
<path opacity="0.5" fill-rule="evenodd" clip-rule="evenodd" d="M152.575 433.343C152.333 433.653 152.333 433.653 152.575 433.343V433.343ZM153.565 432.15C153.49 432.263 153.143 432.629 153.565 432.15V432.15ZM142.791 431.822C144.783 431.447 146.775 431.076 148.768 430.712C146.881 433.355 144.893 432.263 141.667 432.033C142.042 431.962 142.417 431.892 142.791 431.822ZM133.291 430.886C133.795 430.718 134.3 430.549 134.805 430.38C134.789 430.764 134.872 431.124 135.052 431.459C134.188 431.366 133.325 431.265 132.462 431.159C132.738 431.068 133.015 430.977 133.291 430.886ZM128.888 427.635C128.86 426.942 129.902 427.418 130.5 427.371C129.348 428.386 128.81 428.474 128.888 427.635ZM144.633 419.771C144.785 419.578 144.986 419.587 145.236 419.8C144.963 419.892 143.913 420.337 144.633 419.771ZM154.844 418.57C154.871 418.57 155.438 419.335 154.844 418.57V418.57ZM154.558 418.319C154.706 418.433 154.706 418.433 154.558 418.319V418.319ZM153.283 418.171C155.371 418.523 155.213 420.973 153.283 418.171V418.171ZM128.755 418.004C128.331 418.356 128.476 418.014 128.755 418.004V418.004ZM136.739 412.787C133.195 412.994 126.688 412.786 123.728 414.674C119.865 417.139 121.898 425.625 122.244 429.345C122.754 434.843 125.342 436.409 130.52 436.986C136.7 437.675 143.049 437.803 149.261 437.64C154.855 437.493 158.041 435.569 159.066 429.679C159.38 427.877 160.176 425.089 160.151 423.362C160.134 422.165 159.537 421.619 159.312 420.601C158.027 414.804 155.878 414.117 149.937 413.864C145.564 413.678 141.03 412.563 136.739 412.787Z" fill="#0090BD"/>
</g>
<g opacity="0.5">
<path opacity="0.5" fill-rule="evenodd" clip-rule="evenodd" d="M324.496 279.612C333.508 279.804 343.732 284.792 342.307 295.358C341.263 303.098 334.562 309.381 326.8 309.923C318.458 310.505 309.638 304.103 308.505 295.609C307.23 286.056 315.684 279.421 324.496 279.612ZM320.077 275.311C316.423 275.856 312.932 277.775 309.715 279.493C308.487 280.15 302.262 284.151 307.145 285.145C295.38 304.118 323.067 321.742 338.634 309.411C345.625 303.873 349.305 293.374 344.786 285.156C340.113 276.656 329.03 273.966 320.077 275.311Z" fill="#0090BD"/>
<path opacity="0.5" fill-rule="evenodd" clip-rule="evenodd" d="M317.923 291.46C317.923 295.004 323.423 295.004 323.423 291.46C323.423 287.916 317.923 287.916 317.923 291.46Z" fill="#0090BD"/>
<path opacity="0.5" fill-rule="evenodd" clip-rule="evenodd" d="M328.121 292.028C328.121 295.87 334.085 295.87 334.085 292.028C334.085 288.187 328.121 288.187 328.121 292.028Z" fill="#0090BD"/>
<path opacity="0.5" fill-rule="evenodd" clip-rule="evenodd" d="M321.239 299.626C320.436 302.541 329.587 304.036 329.892 300.663C330.037 299.051 321.797 297.593 321.239 299.626Z" fill="#0090BD"/>
<path opacity="0.5" fill-rule="evenodd" clip-rule="evenodd" d="M348.063 297.825C358.593 296.562 369.449 297.146 380.029 297.448C382.677 297.525 385.325 297.599 387.973 297.643C389.656 297.672 393.292 298.48 394.762 297.691C400.779 294.465 388.975 292.904 387.304 292.756C376.78 291.89 360.539 291.58 349.984 291.989C346.862 292.11 346.187 298.05 348.063 297.825Z" fill="#0090BD"/>
<path opacity="0.5" fill-rule="evenodd" clip-rule="evenodd" d="M395.444 350.168C395.534 339.136 395.93 328.029 396.778 317.029C397.123 312.546 397.538 308.069 397.881 303.585C398.043 301.474 398.793 298.516 397.552 296.663C396.273 294.754 393.467 294.357 391.776 296.049C389.752 298.669 390.34 303.066 390.088 306.236C389.701 311.109 389.234 315.979 389.001 320.863C388.552 330.315 388.447 339.932 389.207 349.372C389.566 353.826 390.343 358.172 391.378 362.516C391.849 364.494 395.596 373.302 394.809 374.517C393.588 376.401 384.563 375.689 382.605 375.741C377.581 375.876 372.556 375.964 367.531 376.06C363.229 376.142 358.927 376.201 354.624 376.239C352.916 376.254 342.878 375.95 345.105 378.483C320.205 380.218 294.83 377.321 270.082 376.328C268.832 376.277 266.787 375.922 264.899 375.82C264.673 374.908 264.487 374.094 264.441 373.527C264.116 369.55 264.031 365.559 263.678 361.583C263.033 354.307 261.782 347.106 261.038 339.843C260.295 332.588 260.37 325.311 259.937 318.038C259.863 316.792 259.688 306.584 257.112 304.103C258.333 304.566 260.303 304.627 261.437 304.535C270.617 303.795 279.73 302.199 288.832 300.83C291.436 300.439 297.345 300.716 299.505 299.415C301.374 298.288 302.114 294.337 298.862 294.657C289.786 295.629 280.76 297.138 271.756 298.623C269.347 299.02 266.945 299.445 264.543 299.879C262.939 300.169 258.705 300.147 257.461 301.114C255.95 302.288 255.79 303.087 256.302 303.618C255.59 303.422 254.737 303.73 253.712 304.755C251.774 307.277 253.596 313.488 253.827 316.445C254.104 319.992 254.241 323.544 254.402 327.098C254.714 333.974 255.434 340.755 256.54 347.549C257.78 355.159 258.835 362.801 260.078 370.409C260.401 372.39 260.823 374.322 261.362 376.236C258.013 377.948 260.29 380.672 262.945 381.155C262.964 381.159 262.984 381.161 263.003 381.165C263.831 383.184 264.989 385.054 265.893 382.349C265.962 382.141 265.995 381.886 266.003 381.599C272.862 382.375 280.402 381.893 287.155 382.169C301.783 382.767 316.501 383.664 331.144 383.209C336.941 383.029 342.755 382.514 348.503 381.741C351.871 381.288 355.252 380.747 358.566 379.996C358.803 379.942 359.164 379.886 359.581 379.817C359.649 379.815 359.718 379.813 359.782 379.813C364.857 379.736 369.927 379.6 374.997 379.389C379.253 379.212 383.528 379.121 387.77 378.72C390.405 378.471 395.974 378.517 397.591 375.867C399.062 373.458 396.603 367.251 396.254 364.545C395.64 359.779 395.405 354.969 395.444 350.168Z" fill="#494949"/>
<path opacity="0.5" fill-rule="evenodd" clip-rule="evenodd" d="M344.02 318.313C339.965 318.66 336.216 320.564 332.124 320.588C328.689 320.607 325.308 319.581 321.854 319.733C317.803 319.909 315.574 322.529 312.026 323.406C309.201 324.103 307.421 321.94 304.936 320.984C301.799 319.776 299.481 320.4 296.792 322.227C294.816 323.569 290.208 326.582 290.244 329.298C290.35 337.524 299.947 326.161 301.881 326.023C304.452 325.84 307.324 328.77 310.059 328.937C313.675 329.158 315.993 326.827 319.323 325.978C322.69 325.119 326.33 326.171 329.706 326.498C333.557 326.87 336.928 326.012 340.654 325.093C344.265 324.202 347.342 324.249 351.011 324.997C353.487 325.502 359.657 328.438 360.74 324.663C362.215 319.522 346.854 318.072 344.02 318.313Z" fill="#0090BD"/>
<path opacity="0.5" fill-rule="evenodd" clip-rule="evenodd" d="M345.254 334.001C336.946 334.808 328.587 335.515 320.241 335.741C316.626 335.84 302.73 334.29 303.962 338.884C305.019 342.822 323.929 340.342 327.781 340.042C332.033 339.712 336.279 339.25 340.51 338.715C342.009 338.525 345.63 338.721 346.689 337.464C347.697 336.264 347.2 333.807 345.254 334.001Z" fill="#0090BD"/>
<path opacity="0.5" fill-rule="evenodd" clip-rule="evenodd" d="M287.939 354.92C287.75 355 287.75 355 287.939 354.92V354.92ZM289.692 354.896C291.763 354.831 291.319 353.739 293.385 354.308C294.338 354.57 294.436 354.181 295.175 355.092C296.616 356.869 295.259 360.738 293.838 362.17C288.577 367.472 282.263 355.132 289.692 354.896ZM289.692 349.694C275.289 350.178 281.315 372.427 293.851 367.885C299.028 366.01 302.282 357.56 299.237 352.811C297.756 350.501 295.867 350.09 293.385 349.93C292.809 349.893 292.084 350.73 291.725 350.692C290.87 350.602 290.95 349.647 289.692 349.694Z" fill="#0090BD"/>
<path opacity="0.5" fill-rule="evenodd" clip-rule="evenodd" d="M324.135 355.682C323.878 355.603 328.682 357 328.157 356.453C329.279 357.62 327.77 360.379 326.501 360.86C323.428 362.027 321.704 357.248 324.135 355.682ZM326.267 349.649C321.757 350.288 318.277 352.166 317.66 357.181C317.091 361.81 320.219 366.498 325.152 366.588C335.906 366.785 336.233 348.259 326.267 349.649Z" fill="#0090BD"/>
<path opacity="0.5" fill-rule="evenodd" clip-rule="evenodd" d="M375.357 355.885C375.987 364.105 367.463 356.581 375.357 355.885V355.885ZM371.699 347.09C370.953 348.364 371.589 349.717 372.714 350.458C362.66 352.583 364.937 367.713 375.168 365.477C380.371 364.34 381.327 358.87 380.552 354.352C380.183 352.204 374.83 341.736 371.699 347.09Z" fill="#0090BD"/>
</g>
<path opacity="0.5" fill-rule="evenodd" clip-rule="evenodd" d="M395.485 354.985C392.488 355.518 385.403 358.827 385.464 362.382C385.56 367.932 391.582 361.87 392.922 361.055C400.117 356.676 409.437 362.35 416.93 363.558C420.365 364.111 427.085 365.134 430.119 362.832C435.515 358.738 423.036 359.763 421.446 359.598C412.808 358.706 404.214 353.426 395.485 354.985Z" fill="#494949"/>
<g opacity="0.5">
<path opacity="0.5" fill-rule="evenodd" clip-rule="evenodd" d="M537.05 315.966C537.047 321.644 536.76 327.44 537.807 333.05C538.124 334.749 538.374 338.002 540.165 338.883C541.965 339.768 543.71 338.774 544.157 336.929C544.679 334.783 543.535 331.57 543.419 329.317C543.26 326.238 543.249 323.156 543.248 320.074C543.247 317.848 543.979 314.267 541.351 313.122C539.398 312.27 537.05 313.854 537.05 315.966Z" fill="#494949"/>
<path opacity="0.5" fill-rule="evenodd" clip-rule="evenodd" d="M626.817 306.985C608.005 308.874 588.921 309.266 570.04 310.251C561.313 310.706 550.765 310.125 542.543 313.503C541.016 314.131 535.548 317.623 539.987 319.045C541.371 319.488 542.777 317.997 543.913 317.498C545.805 316.667 547.996 316.41 550.014 316.085C567.17 313.33 585.115 313.81 602.448 312.522C606.889 312.192 611.333 311.853 615.765 311.417C618.931 311.105 625.586 308.823 628.508 309.99C633.502 311.985 633.385 324.945 633.483 329.402C633.535 331.707 631.297 339.981 635.745 339.142C639.304 338.471 638.016 329.875 637.738 327.524C637.01 321.36 635.769 306.078 626.817 306.985Z" fill="#494949"/>
<path opacity="0.5" fill-rule="evenodd" clip-rule="evenodd" d="M633.755 338.844C617.414 340.319 600.697 338.871 584.288 339.452C575.688 339.756 567.096 340.241 558.494 340.525C554.774 340.648 551.05 340.653 547.328 340.68C545.548 340.692 537.447 341.771 542.458 345.3C544.677 346.863 551.749 345.604 554.295 345.574C558.12 345.529 561.942 345.37 565.764 345.22C574.616 344.874 583.463 344.394 592.32 344.155C600.792 343.925 609.269 343.876 617.741 343.647C621.956 343.532 626.229 343.403 630.407 342.788C631.35 342.649 634.412 342.538 635.067 341.487C635.686 340.493 635.251 338.699 633.755 338.844Z" fill="#0090BD"/>
<path opacity="0.5" fill-rule="evenodd" clip-rule="evenodd" d="M553.443 326.575C553.355 326.783 553.355 326.783 553.443 326.575V326.575ZM560.519 324.424C560.777 324.533 560.777 324.533 560.519 324.424V324.424ZM560.188 324.364C564.001 328.251 558.137 332.891 554.565 329.098C550.773 325.071 557.733 324.377 560.188 324.364ZM556.143 318.484C543.008 320.821 547.658 338.327 559.927 335.797C565.313 334.687 568.393 329.261 566.539 324.049C565.815 322.012 564.236 319.777 562.038 319.136C560.942 318.816 559.972 319.319 558.928 319.201C557.932 319.089 557.379 318.261 556.143 318.484Z" fill="#494949"/>
<path opacity="0.5" fill-rule="evenodd" clip-rule="evenodd" d="M606.414 323.411C598.494 323.436 590.571 323.772 582.651 323.923C580.222 323.968 573.978 322.881 573.969 326.711C573.958 330.803 580.913 329.292 583.227 329.237C591.083 329.049 598.959 328.705 606.783 327.957C608.76 327.768 615.602 328.094 615.595 325.406C615.587 322.558 608.01 323.411 606.414 323.411Z" fill="#494949"/>
<path opacity="0.5" fill-rule="evenodd" clip-rule="evenodd" d="M625.333 350.119C605.743 350.645 586.182 350.828 566.608 351.831C559.286 352.206 551.974 352.485 544.642 352.485C543.23 352.485 540.386 351.938 539.057 352.827C535.45 355.239 539.557 357.31 541.908 357.44C557.989 358.332 574.302 356.111 590.373 355.61C599.782 355.317 609.192 355.23 618.595 354.751C621.16 354.621 623.726 354.469 626.287 354.27C627.76 354.156 631.655 354.469 632.845 353.607C638.043 349.845 627.085 350.072 625.333 350.119Z" fill="#0090BD"/>
<path opacity="0.5" fill-rule="evenodd" clip-rule="evenodd" d="M535.45 359.699C535.265 364.778 535.246 369.769 535.911 374.82C536.172 376.807 536.292 379.063 538.622 379.568C540.738 380.026 541.811 378.426 542.249 376.652C543.319 372.319 542.378 366.083 542.365 361.582C542.359 359.356 542.357 356.865 539.607 356.362C537.509 355.978 535.53 357.494 535.45 359.699Z" fill="#0090BD"/>
<path opacity="0.5" fill-rule="evenodd" clip-rule="evenodd" d="M646.098 371.943C614.386 373.614 582.716 375.073 550.982 376.414C548.507 376.519 529.281 376.309 536.002 383.014C538.078 385.085 543.427 383.682 546.112 383.551C550.146 383.352 554.183 383.201 558.218 382.996C574.214 382.181 590.253 381.962 606.237 381.048C615.034 380.545 623.81 379.758 632.561 378.734C636.723 378.247 641.89 378.297 645.788 376.666C647.794 375.827 649.958 371.738 646.098 371.943Z" fill="#0090BD"/>
<path opacity="0.5" fill-rule="evenodd" clip-rule="evenodd" d="M627.864 346.178C625.452 348.58 626.692 353.318 626.874 356.287C627.124 360.372 627.428 364.46 627.938 368.523C628.27 371.162 628.094 375.269 629.502 377.549C631.151 380.219 634.781 379.923 636.272 377.344C637.591 375.063 636.923 370.264 636.889 367.736C636.842 364.24 636.624 360.739 636.417 357.25C636.243 354.335 636.904 349.662 635.3 347.167C633.67 344.631 630.124 343.93 627.864 346.178Z" fill="#0090BD"/>
<path opacity="0.5" fill-rule="evenodd" clip-rule="evenodd" d="M555.381 364.817C555.098 365.035 555.098 365.035 555.381 364.817V364.817ZM561.013 364.111C566.269 365.168 557.771 371.304 555.085 367.093C554.666 366.435 554.447 365.626 555.121 365.054C555.735 364.532 556.121 365.456 556.702 365.208C557.702 364.78 559.946 364.071 561.013 364.111ZM560.288 359.073C556.7 359.357 551.767 359.579 549.991 363.176C547.605 368.007 551.685 372.738 556.406 373.473C560.949 374.181 567.731 371.665 568.095 366.367C568.388 362.095 564.325 358.746 560.288 359.073Z" fill="#0090BD"/>
<path opacity="0.5" fill-rule="evenodd" clip-rule="evenodd" d="M590.245 361.628C586.531 361.688 579.229 360.59 575.993 362.4C572.791 364.192 574.219 367.382 577.14 368.145C579.071 368.649 582.227 367.836 584.237 367.754C586.882 367.646 589.528 367.623 592.175 367.586C596.625 367.526 601.073 367.577 605.524 367.577C610.069 367.577 614.693 367.702 619.23 367.368C624.972 366.945 624.817 362.646 619.202 362.109C609.664 361.196 599.815 361.478 590.245 361.628Z" fill="#0090BD"/>
<path opacity="0.5" fill-rule="evenodd" clip-rule="evenodd" d="M580.757 409.778C580.757 411.82 582.569 409.778 582.556 409.778C582.569 409.778 580.757 407.735 580.757 409.778Z" fill="#0090BD"/>
<path opacity="0.5" fill-rule="evenodd" clip-rule="evenodd" d="M539.761 393.335C539.878 399.272 539.955 405.215 540.208 411.148C540.289 413.024 539.751 416.687 542.025 417.643C544.556 418.708 545.343 416.054 545.635 414.256C546.558 408.56 545.653 402.056 545.564 396.292C545.534 394.357 545.953 391.663 543.755 390.698C541.962 389.91 539.725 391.372 539.761 393.335Z" fill="#0090BD"/>
<path opacity="0.5" fill-rule="evenodd" clip-rule="evenodd" d="M637.399 393.428C637.549 393.782 637.549 393.782 637.399 393.428V393.428ZM637.611 393.368C637.733 393.419 638.224 393.625 637.611 393.368V393.368ZM589.647 388.569C580.533 388.712 571.412 388.82 562.303 389.21C558.416 389.377 554.483 389.512 550.609 389.878C547.865 390.138 541.049 390.246 539.269 392.488C535.596 397.117 543.384 395.854 545.062 395.478C548.115 394.794 551.231 394.575 554.35 394.41C561.117 394.053 567.887 393.863 574.663 393.726C593.038 393.356 611.426 393.413 629.804 393.33C631.583 393.322 634.799 392.606 636.442 393.326C638.089 394.047 637.996 395.821 638.167 397.88C638.394 400.62 636.587 405.841 637.964 408.146C640.1 411.721 643.206 408.685 643.681 406.079C644.337 402.478 643.297 398.154 642.279 394.711C640.843 389.855 638.849 389.662 634.152 389.282C628.663 388.839 623.195 388.57 617.688 388.519C608.343 388.433 598.992 388.424 589.647 388.569Z" fill="#0090BD"/>
<path opacity="0.5" fill-rule="evenodd" clip-rule="evenodd" d="M625.698 413.112C605.928 415.408 585.596 414.055 565.721 414.136C560.888 414.156 556.051 414.195 551.222 414.429C548.672 414.552 542.627 413.849 540.88 415.817C537.197 419.964 543.831 420.567 546.253 420.396C551.15 420.047 556.058 419.89 560.968 419.852C578.26 419.718 595.651 420.524 612.929 419.671C620.168 419.313 627.245 418.076 634.35 416.692C635.924 416.386 646.699 414.337 640.555 411.882C636.924 410.431 629.512 412.667 625.698 413.112Z" fill="#0090BD"/>
<path opacity="0.5" fill-rule="evenodd" clip-rule="evenodd" d="M567.976 405.52C567.838 405.697 567.838 405.697 567.976 405.52V405.52ZM567.843 405.489C567.796 405.616 567.651 405.93 567.843 405.489V405.489ZM566.596 403.882C566.625 403.919 566.743 404.07 566.596 403.882V403.882ZM566.548 403.869C567.024 404.437 567.345 405.071 567.51 405.77C563.414 406.88 561.835 403.566 566.548 403.869ZM566.289 403.714C566.291 403.715 566.867 403.957 566.289 403.714V403.714ZM559.561 398.778C556.91 402.079 554.721 405.925 558.026 409.696C560.982 413.068 566.927 413.503 570.678 411.252C574.541 408.933 574.207 404.051 571.512 400.864C569.777 398.812 568.371 398.868 565.853 398.533C564.139 398.305 561.015 396.973 559.561 398.778Z" fill="#0090BD"/>
<path opacity="0.5" fill-rule="evenodd" clip-rule="evenodd" d="M586.964 404.888C586.964 409.284 605.945 407.392 609.322 407.387C612.151 407.383 629.255 408.943 628.027 404.419C627.018 400.702 610.171 402.55 606.583 402.544C603.482 402.54 586.964 400.411 586.964 404.888Z" fill="#0090BD"/>
</g>
<g opacity="0.5">
<path opacity="0.5" fill-rule="evenodd" clip-rule="evenodd" d="M339.164 446.075C348.67 447.455 358.558 451.926 358.475 462.991C358.405 472.294 350.603 482.195 340.583 481.639C331.567 481.14 323.076 471.279 321.947 462.829C321.362 458.451 322.457 453.738 325.032 450.136C328.406 445.418 333.76 445.425 339.164 446.075ZM334.674 440.061C327.798 440.098 322.768 442.585 318.513 447.835C316.987 449.717 315.212 451.743 314.05 453.876C312.965 455.868 313.155 460.933 316.879 458.558C315.962 468.364 321.693 477.88 329.931 482.905C338.886 488.367 349.008 487.303 356.461 479.647C363.283 472.639 365.684 460.801 360.693 452.134C355.705 443.472 344.147 439.968 334.674 440.061Z" fill="#0090BD"/>
<path opacity="0.5" fill-rule="evenodd" clip-rule="evenodd" d="M355.29 437.432C350.888 440.659 346.869 444.907 343.531 449.216C340.268 453.427 338.111 458.686 334.191 462.359C332.212 460.203 329.893 454.38 325.944 456.69C322.667 458.607 324.777 461.903 326.373 464.068C330.494 469.657 335.07 471.907 340.355 466.384C345.155 461.369 347.881 454.679 352.369 449.375C354.337 447.048 357.379 444.739 358.946 442.169C360.367 439.84 358.61 434.993 355.29 437.432Z" fill="#0090BD"/>
</g>
<g opacity="0.5">
<path opacity="0.5" fill-rule="evenodd" clip-rule="evenodd" d="M521.639 87.5765C521.646 88.0165 521.652 88.4295 521.661 88.8105C521.867 97.1145 521.748 105.845 521.073 114.13C520.84 116.991 518.759 120.616 516.385 116.673C515.341 114.939 515.488 111.379 515.595 108.76C515.624 108.057 515.65 107.423 515.65 106.909C515.648 103.987 515.801 101.035 515.955 98.0735C516.256 92.2865 516.559 86.4685 515.702 80.7845C515.685 80.6695 515.668 80.5595 515.653 80.4525C515.28 77.9535 515.255 77.7805 512.506 77.8375C511.36 77.8615 510.214 77.8925 509.069 77.9235C507.942 77.9535 506.815 77.9845 505.688 78.0075C504.568 78.0315 503.449 78.0525 502.33 78.0745C498.82 78.1415 495.31 78.2095 491.801 78.3375C491.216 78.3595 490.123 78.4965 488.745 78.6695C485.988 79.0145 482.088 79.5045 478.806 79.5015C478.807 79.5155 478.808 79.5295 478.809 79.5435C478.811 79.5695 478.813 79.5945 478.813 79.6205C478.85 81.4325 478.383 83.4545 477.914 85.4865C477.522 87.1885 477.128 88.8975 477.027 90.4935C476.786 94.2925 476.783 98.1315 476.781 101.972C476.777 106.647 476.774 111.322 476.341 115.924C476.32 116.149 476.307 116.386 476.294 116.626C476.293 116.658 476.291 116.69 476.289 116.722C476.438 116.699 476.582 116.683 476.721 116.674C479.087 116.524 481.472 116.511 483.854 116.497C485.168 116.49 486.48 116.483 487.787 116.452C490.135 116.398 492.512 116.401 494.898 116.403C500.165 116.409 505.479 116.415 510.631 115.808C512.153 115.611 512.685 117.562 512.002 118.574C511.391 119.48 509.708 119.627 508.476 119.734C508.163 119.762 507.879 119.786 507.649 119.82C504.326 120.312 500.959 120.484 497.606 120.633C494.085 120.789 490.56 120.905 487.037 121.003C486.198 121.027 485.079 121.14 483.838 121.265C480.561 121.596 476.436 122.013 474.389 121.087C472.188 120.091 472.24 118.986 473.138 118.13C472.744 117.263 472.682 115.998 472.633 115.008C472.615 114.63 472.598 114.292 472.566 114.032C472.078 110.091 471.783 106.2 471.776 102.225C471.762 94.4385 471.778 86.3515 473.932 78.8145C473.069 78.4365 472.549 77.8795 472.551 77.0775C472.561 73.0335 485.146 73.2395 491.129 73.3375C492.199 73.3545 493.057 73.3685 493.595 73.3545C497.953 73.2405 502.312 73.2255 506.671 73.2495C507.592 73.2545 508.617 73.1935 509.679 73.1315C511.938 72.9985 514.365 72.8565 516.316 73.3095C521.442 74.4995 521.565 82.6635 521.639 87.5765Z" fill="#0090BD"/>
<path opacity="0.5" fill-rule="evenodd" clip-rule="evenodd" d="M553.699 74.1955C558.458 73.9435 563.22 73.8865 567.985 73.8685C573.03 73.8435 578.082 73.9335 583.125 74.0885L583.242 74.0925C585.476 74.1595 597.896 74.5325 592.19 77.6275C591.858 77.8085 591.483 77.9585 591.074 78.0845C591.316 79.5175 591.345 80.9965 591.306 81.7095C591.159 84.4125 591.062 87.1195 590.965 89.8255C590.899 91.6595 590.833 93.4935 590.751 95.3265C590.527 100.391 590.313 105.456 590.139 110.523C590.117 111.145 590.15 111.958 590.187 112.865C590.308 115.862 590.471 119.879 588.843 121.364C587.414 122.667 586.438 122.406 585.78 121.52C581.692 122.708 573.296 122.322 569.075 122.128C568.057 122.081 567.283 122.045 566.869 122.045C566.129 122.046 564.753 122.138 563.017 122.255C555.788 122.74 542.293 123.647 542.266 120.083C542.263 119.74 542.374 119.433 542.584 119.157C542.011 118.573 541.496 117.715 541.165 116.644C539.977 112.8 539.865 108.653 539.777 104.667C539.652 99.0385 539.651 93.4035 539.65 87.7705C539.649 84.8765 539.648 81.9835 539.631 79.0925C538.858 78.0545 539.317 76.8675 540.281 76.0395C542.334 74.2775 547.43 74.2565 551.116 74.2405C552.108 74.2365 552.998 74.2325 553.699 74.1955ZM545.955 117.594C550.542 116.615 558.271 116.93 562.411 117.099C563.496 117.143 564.334 117.177 564.806 117.175C569.035 117.159 573.265 117.218 577.491 117.387C577.929 117.404 578.577 117.388 579.341 117.368C580.876 117.33 582.876 117.279 584.575 117.468C584.552 117.237 584.537 117.027 584.528 116.845C584.337 113.083 584.475 109.289 584.611 105.516C584.64 104.714 584.669 103.913 584.695 103.114C584.786 100.293 584.906 97.4725 585.027 94.6535V94.6515C585.103 92.8765 585.178 91.1015 585.247 89.3265C585.277 88.5475 585.232 87.4885 585.182 86.2985C585.08 83.8765 584.954 80.9065 585.388 78.6245C583.823 78.5955 582.22 78.4845 580.749 78.3825C579.333 78.2845 578.039 78.1955 577.022 78.1945C575.732 78.1945 574.443 78.1905 573.153 78.1865C569.579 78.1755 566.007 78.1645 562.433 78.2355C562.095 78.2425 561.756 78.2485 561.416 78.2555C556.496 78.3505 551.534 78.4465 546.655 79.0945C546.369 79.1325 546.026 79.2055 545.645 79.2945C546.18 81.5305 545.918 84.6815 545.689 87.4405C545.577 88.7805 545.473 90.0285 545.472 91.0345C545.465 97.2905 545.63 103.522 545.795 109.747V109.748C545.858 112.103 545.92 114.456 545.973 116.81C545.98 117.091 545.973 117.352 545.955 117.594Z" fill="#0090BD"/>
<path opacity="0.5" fill-rule="evenodd" clip-rule="evenodd" d="M493.748 120.822C490.621 122.649 492.307 129.958 493.391 132.485C495.172 136.642 498.786 139.894 502.686 142.051C510.568 146.411 521.93 145.253 527.891 152.813C527.953 152.891 530.013 154.931 530.482 152.289C530.867 150.121 527.021 146.81 525.53 145.724C521.291 142.633 515.855 141.637 510.952 140.093C505.723 138.447 499.985 135.412 497.792 130.021C497.016 128.112 498.496 118.036 493.748 120.822Z" fill="#494949"/>
<path opacity="0.5" fill-rule="evenodd" clip-rule="evenodd" d="M565.243 124.336C562.377 125.126 564.273 129.07 564.268 131.044C564.263 133.508 563.475 136.086 561.957 138.052C558.107 143.037 550.568 143.784 544.916 145.214C540.812 146.252 530.993 148.479 530.609 154.03C530.18 160.228 538.848 152.685 539.581 152.376C547.683 149.404 558.165 148.83 564.419 142.288C567 139.587 568.526 135.983 568.769 132.263C568.905 130.168 568.929 123.329 565.243 124.336Z" fill="#494949"/>
<path opacity="0.5" fill-rule="evenodd" clip-rule="evenodd" d="M506.025 179.315C505.958 167.847 516.933 160.909 526.858 158.3C538.786 155.157 549.898 163.515 551.304 175.539C552.788 188.228 543.225 198.442 530.613 199.002C519.519 199.494 506.096 191.552 506.025 179.315ZM532.671 163.814C533.317 164.691 533.899 166.091 532.599 166.853C531.349 167.582 530.724 166.706 530.096 165.824C529.698 165.267 529.3 164.708 528.74 164.55C527.29 164.142 524.96 165.667 523.752 166.556C523.262 166.917 522.564 167.694 521.748 168.603C519.152 171.494 515.362 175.716 513.266 172.083C504.91 186.512 525.743 197.311 537.588 191.85C550.598 185.853 548.066 163.928 532.671 163.814Z" fill="#0090BD"/>
<path opacity="0.5" fill-rule="evenodd" clip-rule="evenodd" d="M521.753 175.476C521.753 178.108 525.91 178.108 525.91 175.476C525.91 172.873 521.753 172.762 521.753 175.476Z" fill="#0090BD"/>
<path opacity="0.5" fill-rule="evenodd" clip-rule="evenodd" d="M529.067 174.982C529.067 178.206 534.161 178.206 534.161 174.982C534.161 171.794 529.067 171.658 529.067 174.982Z" fill="#0090BD"/>
<path opacity="0.5" fill-rule="evenodd" clip-rule="evenodd" d="M523.833 182.495C519.667 184.946 531.581 189.815 532.051 184.839C532.254 182.692 530.175 183.27 528.789 183.113C527.463 182.961 525.091 181.763 523.833 182.495Z" fill="#0090BD"/>
<path opacity="0.5" fill-rule="evenodd" clip-rule="evenodd" d="M522.026 199.879C522.207 206.138 522.12 212.394 523.307 218.565C523.533 219.737 523.689 223.989 524.616 224.86C526.895 227.002 526.932 222.897 527.021 221.323C527.337 215.688 526.745 209.877 526.615 204.23C526.587 203.014 526.909 200.497 526.335 199.32C525.425 197.453 521.937 196.898 522.026 199.879Z" fill="#494949"/>
<path opacity="0.5" fill-rule="evenodd" clip-rule="evenodd" d="M517.57 194.805C508.437 205.056 495.86 204.301 483.19 205.199C476.496 205.673 469.727 206.647 464.34 210.977C461.834 212.992 459.674 215.515 458.222 218.39C457.588 219.647 454.578 226.9 459.098 225.18C460.702 224.569 462.28 219.773 463.316 218.354C465.291 215.652 467.818 213.421 470.849 211.971C476.696 209.174 483.678 209.222 490.018 208.867C496.645 208.496 503.758 208.149 509.85 205.267C512.716 203.911 515.404 202.221 517.711 200.042C518.535 199.263 520.302 197.94 520.434 196.749C520.584 195.388 519.276 192.896 517.57 194.805Z" fill="#494949"/>
<path opacity="0.5" fill-rule="evenodd" clip-rule="evenodd" d="M471.464 226.268C462.885 226.555 454.316 226.902 445.749 227.445C443.994 227.556 438.14 227.201 439.631 230.799C440.826 233.682 447.965 231.775 450.326 231.635C459.253 231.105 468.217 230.921 477.126 230.118C479.127 229.938 488.173 230.009 484.437 226.463C482.66 224.775 473.919 226.185 471.464 226.268Z" fill="#0090BD"/>
<path opacity="0.5" fill-rule="evenodd" clip-rule="evenodd" d="M434.183 230.405C431.479 233.957 432.722 242.59 432.926 246.86C433.124 250.997 432.32 258.561 437.721 259.203C436.006 258.978 439.023 259.307 439.514 259.333C440.61 259.392 441.712 259.411 442.81 259.423C445.347 259.451 447.885 259.417 450.421 259.366C456.166 259.252 461.926 259.084 467.664 258.767C470.076 258.633 483.16 258.745 483.678 256.239C484.34 253.037 471.795 254.849 469.549 254.951C464.08 255.202 458.602 255.255 453.128 255.326C450.415 255.362 447.699 255.389 444.986 255.336C443.865 255.314 439.429 255.774 438.748 255.026C438.167 254.39 438.62 248.54 438.608 247.645C438.568 244.728 438.571 241.805 438.675 238.889C438.745 236.926 439.806 233.191 438.941 231.347C438.1 229.554 435.649 228.942 434.183 230.405Z" fill="#0090BD"/>
<path opacity="0.5" fill-rule="evenodd" clip-rule="evenodd" d="M478.359 230.571C478.516 237.069 478.564 243.698 480.099 250.053C480.61 252.167 481.325 256.528 483.45 257.623C485.679 258.772 487.605 257.131 487.75 254.921C487.934 252.144 486.446 248.498 486.141 245.648C485.785 242.323 485.578 238.995 485.456 235.653C485.364 233.14 486.128 229.372 483.732 227.752C481.58 226.296 478.289 227.761 478.359 230.571Z" fill="#0090BD"/>
<path opacity="0.5" fill-rule="evenodd" clip-rule="evenodd" d="M495.432 228.986C492.764 231.644 493.956 240.059 494.29 243.474C494.534 245.975 497.272 258.28 501.374 251.863C503.189 249.025 500.883 241.52 500.9 238.21C500.91 236.102 501.656 233.437 501.296 231.412C500.82 228.736 497.852 226.569 495.432 228.986Z" fill="#0090BD"/>
<path opacity="0.5" fill-rule="evenodd" clip-rule="evenodd" d="M513.907 226.791C521.921 225.964 529.945 225.345 538.004 225.268C538.391 225.265 538.797 225.26 539.22 225.255C544.743 225.185 553.043 225.079 556.76 229.227C558.785 231.486 559.702 234.979 560.502 238.024C560.651 238.591 560.796 239.144 560.944 239.67C561.069 240.119 561.233 240.63 561.41 241.184C562.245 243.798 563.375 247.335 562.229 249.524C561.601 250.725 560.59 251.75 559.055 251.325C558.697 251.225 558.416 251.098 558.196 250.948C558.784 251.584 559.044 252.491 558.662 253.377C557.924 255.091 555.593 255.128 553.755 255.156C553.31 255.163 552.894 255.17 552.536 255.2C546.417 255.71 540.27 256.05 534.13 256.104C531.206 256.129 528.282 256.105 525.358 256.082C522.349 256.057 519.339 256.032 516.33 256.062C514.145 256.083 511.921 256.29 509.695 256.498C506.886 256.76 504.075 257.023 501.342 256.911C499.298 256.827 497.115 256.157 497.633 253.515C498.056 251.358 500.086 251.171 501.905 251.002C502.063 250.988 502.22 250.973 502.374 250.957C508.167 250.368 513.962 250.158 519.784 250.179C532.015 250.221 544.237 250.159 556.467 250.095C556.97 250.137 557.443 250.329 557.833 250.621C557.393 250.087 557.402 249.375 557.411 248.618C557.415 248.275 557.419 247.922 557.382 247.573C557.307 246.87 557.239 246.17 557.17 245.471C556.944 243.162 556.72 240.87 556.279 238.548C556.213 238.197 556.149 237.811 556.081 237.403C555.68 234.992 555.15 231.796 553.233 230.494C551.305 229.185 547.525 229.249 544.579 229.298C543.784 229.311 543.049 229.323 542.428 229.307C534.567 229.104 526.661 229.662 518.835 230.373C518.234 230.428 517.632 230.48 517.029 230.533C514.052 230.792 511.059 231.054 508.125 231.586C507.588 231.684 506.768 231.97 505.827 232.299C503.324 233.172 499.967 234.343 498.826 233.053C495.048 228.78 511.653 227.024 513.907 226.791Z" fill="#0090BD"/>
<path opacity="0.5" fill-rule="evenodd" clip-rule="evenodd" d="M599.171 217.062C599.52 217.51 599.52 217.51 599.171 217.062V217.062ZM544.937 190.586C540.069 193.447 549.078 201.842 551.373 203.14C556.537 206.062 563.634 206.503 569.4 207.324C576.698 208.365 584.64 208.748 591.654 211.139C594.643 212.158 596.541 213.748 598.498 216.192C599.49 217.431 601.877 222.768 604.051 221.504C608.429 218.96 596.633 208.282 594.034 207.134C588.126 204.524 581.142 203.793 574.825 202.78C568.951 201.837 562.95 201.136 557.221 199.474C554.071 198.561 551.832 197.087 550.016 194.266C548.884 192.508 547.956 188.82 544.937 190.586Z" fill="#494949"/>
<path opacity="0.5" fill-rule="evenodd" clip-rule="evenodd" d="M619.555 223.38C613.943 223.505 608.342 223.937 602.742 224.368C599.6 224.61 596.459 224.852 593.317 225.04C592.334 225.099 591.35 225.152 590.366 225.205C587.597 225.354 584.825 225.503 582.07 225.782C581.652 225.824 581.167 225.864 580.638 225.907C578.298 226.099 575.108 226.361 573.069 227.215C571.2 225.801 568.315 227.003 568.27 229.523C568.193 234.113 568.235 238.622 568.795 243.184C568.925 244.243 569.594 249.604 571.05 252.395C570.532 255.031 572.779 255.769 574.87 255.971C582.97 256.753 591.463 256.146 599.842 255.548C604.103 255.243 608.335 254.941 612.47 254.824C613.845 254.785 615.238 254.77 616.639 254.754C621.211 254.703 625.871 254.651 630.297 253.786C630.475 253.751 630.666 253.717 630.866 253.681C632.616 253.368 635.029 252.935 635.213 251.009C635.323 249.853 634.671 248.795 633.58 248.646C633.655 247.683 633.534 246.632 633.445 245.86C633.424 245.68 633.405 245.515 633.391 245.37C633.125 242.692 632.458 240.031 631.799 237.404C631.651 236.813 631.504 236.224 631.361 235.638C631.203 234.988 631.057 234.214 630.899 233.381C630.343 230.438 629.643 226.741 627.784 225.024C625.833 223.224 622.658 223.303 620.114 223.367C619.924 223.372 619.737 223.377 619.555 223.38ZM629.43 248.934C628.765 247.192 628.57 244.837 628.385 242.598C628.269 241.193 628.156 239.833 627.934 238.7C627.766 237.85 627.629 236.954 627.49 236.043C627.152 233.83 626.801 231.531 625.97 229.592C624.858 226.995 623.868 227.094 621.526 227.329C621.091 227.373 620.608 227.421 620.07 227.458C617.683 227.62 615.298 227.826 612.914 228.033C611.77 228.132 610.626 228.231 609.482 228.325C604.586 228.727 599.687 229.037 594.788 229.346C591.926 229.527 589.063 229.707 586.201 229.907C583.955 230.063 581.762 230.49 579.579 230.915C577.85 231.252 576.126 231.588 574.386 231.787C574.361 232.382 574.311 232.979 574.263 233.548C574.198 234.323 574.138 235.045 574.151 235.636C574.208 238.258 574.439 240.863 574.671 243.473C574.707 243.874 574.742 244.275 574.777 244.677C574.819 245.158 574.923 245.776 575.038 246.462C575.215 247.523 575.42 248.745 575.465 249.87C575.677 249.869 575.888 249.87 576.095 249.87C576.363 249.871 576.626 249.872 576.879 249.868C583.047 249.76 589.211 249.573 595.376 249.336C596.163 249.306 596.95 249.275 597.737 249.245C603.237 249.031 608.737 248.816 614.242 248.753C616.429 248.728 618.644 248.797 620.867 248.866C623.726 248.954 626.596 249.043 629.43 248.934Z" fill="#0090BD"/>
</g>
<path fill-rule="evenodd" clip-rule="evenodd" d="M298.935 265.244C305.411 269.147 311.774 271.033 314.76 270.263C322.25 268.333 322.938 240.935 317.143 230.134C311.349 219.333 281.558 214.625 280.057 236.025C279.536 243.453 282.654 250.081 287.262 255.49L279 294H303L298.935 265.244Z" fill="#EFAD83"/>
<path fill-rule="evenodd" clip-rule="evenodd" d="M278.655 235.91C278.111 235.969 277.559 236 277 236C268.716 236 262 229.284 262 221C262 212.716 268.716 206 277 206C285.213 206 291.884 212.601 291.998 220.787C304.055 216.61 319.701 221.491 317.607 231.281C316.322 237.288 309.617 240.422 302.774 243.62C302.456 243.769 302.137 243.918 301.819 244.067C300.765 242.237 298.754 241 296.447 241C293.047 241 290.29 243.686 290.29 247C290.29 248.194 290.648 249.306 291.264 250.24C288.855 252.336 287.154 254.859 286.743 258.132C282.859 258.132 276.582 246.729 278.655 235.91Z" fill="#191847"/>
<path fill-rule="evenodd" clip-rule="evenodd" d="M280 560C322.526 560 357 527.093 357 486.5C357 445.907 322.526 413 280 413C237.474 413 203 445.907 203 486.5C203 527.093 237.474 560 280 560Z" fill="#DCE5ED"/>
<path fill-rule="evenodd" clip-rule="evenodd" d="M399.711 482.58C403.43 495.608 412.697 520.302 425.509 548.66L437.685 545.107C427.033 479.853 418.168 436.651 413.09 423.502C409.735 414.814 384.353 415.832 387.273 433.313C388.498 440.643 393.343 460.273 399.711 482.58ZM349.667 436.361C329.812 440.475 288.644 455.017 276.888 459.664C269.5 462.584 274.263 472.488 280.566 471.622C281.633 471.475 285.41 471.052 291.044 470.422C309.142 468.397 346.412 464.228 374.679 460.16C389.563 458.017 381.556 430.138 366.102 433.088C360.903 434.081 355.373 435.179 349.667 436.361Z" fill="#EFAD83"/>
<path fill-rule="evenodd" clip-rule="evenodd" d="M413.869 416.138C411.839 409.514 319.562 386 319.562 386H312V393.047L375.587 425.416C375.503 426.461 375.554 427.565 375.759 428.729C375.3 452.726 385.571 470.653 395.739 488.402C402.389 500.008 408.994 511.539 412.528 524.641L435.889 521.156C435.209 519.416 434.133 511.568 432.661 500.839C428.952 473.785 422.729 428.409 414 416.403C413.97 416.361 413.939 416.32 413.907 416.278C413.896 416.231 413.883 416.185 413.869 416.138Z" fill="#5C63AB"/>
<path fill-rule="evenodd" clip-rule="evenodd" d="M317.283 444.64C311.465 443.476 306.107 442.436 301.523 441.632C271.909 436.438 263.274 420.586 268.38 386H322.942C331.855 388.56 378.174 407.985 402.207 418.316C418.113 425.154 413.099 449.804 404.091 456.219C404.042 456.613 403.88 456.88 403.591 457C369.44 471.154 340.318 470.098 321.617 469.42C313.784 469.136 307.78 468.918 304 469.912L298.077 451.228L317.283 444.64Z" fill="#8991DC"/>
<path fill-rule="evenodd" clip-rule="evenodd" d="M283.127 458.695C283.081 457.525 282.094 456.589 280.93 456.713C278.806 456.939 275.672 457.38 274.147 458.124C271.716 459.31 267.447 462.395 267.447 462.395C268.822 465.215 292.171 513.088 292.171 513.088C292.171 513.088 299.668 511.878 298.112 507.367C296.557 502.855 295.603 499.835 295.603 499.835L294.615 471.15C294.596 470.587 294.115 470.151 293.553 470.186L289.14 470.463C289.14 470.463 285.379 467.419 284.178 464.955C283.446 463.455 283.204 460.655 283.127 458.695Z" fill="#B1B1B1"/>
<path fill-rule="evenodd" clip-rule="evenodd" d="M422.45 542.284C421.378 541.813 420.104 542.29 419.705 543.391C418.977 545.398 418 548.409 418 550.106C418 552.811 418.901 558 418.901 558C422.039 558 475.303 558 475.303 558C475.303 558 477.502 550.732 472.765 550.152C468.028 549.573 464.895 549.106 464.895 549.106L438.68 537.419C438.165 537.189 437.563 537.43 437.348 537.951L435.663 542.039C435.663 542.039 431.278 544.085 428.537 544.085C426.868 544.085 424.246 543.074 422.45 542.284Z" fill="#B1B1B1"/>
<path fill-rule="evenodd" clip-rule="evenodd" d="M190.38 412.201C194.298 406.855 217.892 349.375 217.892 349.375L235.503 352.564C235.503 352.564 204.843 413.405 202.66 416.902C199.824 421.445 201.923 429.142 203.347 434.361C203.567 435.169 203.771 435.917 203.938 436.585C200.535 437.44 199.321 435.467 198.041 433.387C196.595 431.037 195.065 428.551 190.202 429.85C188.324 430.351 186.512 431.017 184.743 431.667C178.63 433.912 173.015 435.974 166.84 430.477C165.861 429.606 165.107 426.841 168.367 425.36C176.489 421.669 188.464 414.815 190.38 412.201ZM394.141 382.555L362.243 359.132L355.191 376.563L386.779 389.661C395.712 400.155 400.708 404.53 401.765 402.785C402.657 401.314 401.96 399.937 401.318 398.669C400.818 397.681 400.351 396.758 400.695 395.909C401.479 393.97 407.48 394.174 413.167 394.611C418.853 395.048 417.196 392.518 415.825 391.269C410.02 387.794 402.792 384.89 394.141 382.555Z" fill="#EFAD83"/>
<path fill-rule="evenodd" clip-rule="evenodd" d="M304.617 276.042L293.922 280.428C294.034 283.221 294.023 287.195 294.011 291.747C293.971 306.036 293.915 326.027 297.607 333.122C310.396 357.701 336.656 370.505 365.904 384.765C369.824 386.676 373.799 388.614 377.801 390.61L385.848 374.182C384.916 373.521 383.992 372.857 383.076 372.189C384.341 371.746 385.395 370.745 385.856 369.377C386.649 367.022 385.383 364.469 383.028 363.676C378.242 362.063 373.778 361.383 369.673 361.678C339.702 336.423 319.526 306.858 304.617 276.042Z" fill="#0094FF"/>
<path fill-rule="evenodd" clip-rule="evenodd" d="M256.353 387.91C256.353 387.91 303.51 393.09 330.589 387.91C332.826 387.482 332.728 377.84 331.69 375.207C315.538 334.202 304.913 304.184 304.913 275.703C300.468 278.025 289.353 276.399 289.353 276.399C269.439 305.75 260.285 339.427 256.353 387.91Z" fill="#DCE5ED"/>
<path fill-rule="evenodd" clip-rule="evenodd" d="M196.545 388.406C224.334 308.98 281.329 274 281.329 274H282.885H286.73H292.701C291.413 291.036 297.466 315.826 304.488 344.584C315.717 390.577 329.424 446.719 319.544 497.518C307.395 500.231 293.119 498.379 277.665 496.374C255.361 493.479 230.602 490.267 206.235 500C207.175 479.65 219.056 457.124 230.884 434.699C238.382 420.484 245.857 406.31 250.511 392.758C249.444 391.753 248.887 390.247 249.161 388.696L249.681 385.741C250.035 383.739 251.661 382.281 253.58 382.053C253.916 380.553 254.205 379.063 254.444 377.583C255.666 370.025 254.886 362.555 254.115 355.169V355.169C253.692 351.114 253.271 347.084 253.186 343.079C239.793 355.01 223.581 375.813 209.901 411.871L191.014 406.313C191.736 403.63 192.493 400.991 193.281 398.396C191.095 397.191 188.518 391.47 190.359 390.516C192.305 389.508 194.369 388.807 196.545 388.406Z" fill="#51B6FF"/>
<path fill-rule="evenodd" clip-rule="evenodd" d="M285.459 275L280.3 290.865L290.689 302.759L281.3 312.105L304.015 351L276.237 312.183L285.459 302.759L276.237 292.249L285.459 275Z" fill="black" fill-opacity="0.1"/>
<path fill-rule="evenodd" clip-rule="evenodd" d="M297.353 366C299.562 366 301.353 364.209 301.353 362C301.353 359.791 299.562 358 297.353 358C295.144 358 293.353 359.791 293.353 362C293.353 364.209 295.144 366 297.353 366ZM302.353 389C304.562 389 306.353 387.209 306.353 385C306.353 382.791 304.562 381 302.353 381C300.144 381 298.353 382.791 298.353 385C298.353 387.209 300.144 389 302.353 389ZM307.353 408C307.353 410.209 305.562 412 303.353 412C301.144 412 299.353 410.209 299.353 408C299.353 405.791 301.144 404 303.353 404C305.562 404 307.353 405.791 307.353 408Z" fill="black" fill-opacity="0.4"/>
</svg>
